<svg width="1440" height="253" viewBox="0 0 1440 253" fill="none" xmlns="http://www.w3.org/2000/svg">
<path d="M-35 191.334H18.3732V185.485L7.16242 184.753C0.0947304 184.022 -4.29211 182.803 -3.56097 175.979L6.18757 17.0617L74.1836 160.136H75.6459L143.398 16.8179L153.147 175.979C153.878 182.803 149.491 184.022 141.936 184.753L131.213 185.485V191.334H199.94V185.485L188.973 184.753C181.418 184.022 178.493 182.803 177.762 175.979L168.013 21.9364C167.282 15.1117 171.669 13.8931 179.224 13.1619L190.191 12.4306V6.58093H138.28L83.6884 122.113L29.0966 6.58093H-25.2515V12.4306L-14.2844 13.1619C-7.21667 13.8931 -2.58611 15.1117 -3.31726 21.9364L-13.0658 175.979C-13.7969 182.803 -17.2089 184.022 -24.2766 184.753L-35 185.485V191.334Z" fill="#F0F0F0"/>
<path d="M216.805 191.334H280.171V185.728L267.01 184.997C258.48 184.753 257.506 183.778 257.506 177.197V116.994C257.506 99.4451 266.523 87.0145 295.037 88.9644L304.542 89.9393V66.7842H302.349C281.146 66.7842 263.598 77.2649 257.506 103.589V65.078L216.805 80.6773V82.1397L234.597 92.133V177.197C234.597 183.778 233.378 184.997 225.335 185.241L216.805 185.728V191.334Z" fill="#F0F0F0"/>
<path d="M319.169 191.334H377.66V185.728L369.374 185.241C361.575 184.51 359.869 183.778 359.869 177.197V65.078L319.169 80.6773V82.1397L336.96 92.133V177.197C336.96 183.778 335.254 184.51 327.699 185.241L319.169 185.728V191.334ZM332.817 15.3555C332.817 23.8863 339.885 31.1985 348.415 31.1985C356.944 31.1985 364.012 23.8863 364.012 15.3555C364.012 7.31213 356.944 0 348.415 0C339.885 0 332.817 7.31213 332.817 15.3555Z" fill="#F0F0F0"/>
<path d="M419.236 253C429.472 253 432.153 245.2 439.221 229.601L504.536 85.0646C507.704 77.9961 510.141 75.0713 517.696 74.8276L525.495 74.5838V68.9778H479.19V74.5838L488.207 74.8276C496.006 75.0713 499.174 78.7274 495.275 87.5019L461.398 163.548L428.01 83.6021C425.816 77.9961 428.253 75.0713 435.809 74.8276L443.851 74.5838V68.9778H384.629V74.5838L391.696 74.8276C399.252 75.0713 400.714 77.7524 403.638 84.3333L448.725 191.334L435.809 219.608C413.143 223.508 406.563 232.77 406.563 240.813C406.563 247.882 412.168 253 419.236 253Z" fill="#F0F0F0"/>
<path d="M567.163 194.259C583.979 194.259 596.896 187.191 603.476 165.742L605.182 193.04L643.689 185.972V180.61H625.166L625.897 103.832C626.141 74.5838 613.956 65.078 590.315 65.078C576.667 65.078 562.532 70.1965 549.128 77.2649C537.673 82.8709 526.95 90.4268 526.95 98.7139C526.95 105.295 532.799 109.926 543.522 109.926C546.691 109.926 549.615 109.682 552.783 108.951C547.909 86.2832 558.876 72.1464 578.373 72.1464C595.19 72.1464 603.232 82.6272 603.232 96.2765C603.232 106.757 602.988 113.582 572.524 125.281C554.489 132.35 528.412 138.687 528.412 161.355C528.412 178.904 544.253 194.259 567.163 194.259ZM576.911 184.266C562.045 184.266 554.733 172.079 554.733 159.405C554.733 142.83 565.7 136.006 582.516 126.987C592.021 122.113 596.652 118.944 603.232 114.069L602.745 148.924C602.745 174.516 589.34 184.266 576.911 184.266Z" fill="#F0F0F0"/>
<path d="M720.769 191.334H789.496V185.485L778.529 184.753C770.974 184.022 767.318 182.803 767.318 175.979V100.42H785.109L867.24 191.334H898.679L813.38 97.4952C846.768 93.3516 867.24 78.9711 867.24 51.6725C867.24 16.0867 834.826 6.58093 790.714 6.58093H720.769V12.4306L731.736 13.1619C738.803 13.8931 742.703 15.1117 742.703 21.9364V175.979C742.703 182.803 738.803 184.022 731.736 184.753L720.769 185.485V191.334ZM767.318 92.8642V14.1368H788.765C819.96 14.1368 839.701 24.6175 839.701 53.3786C839.701 82.3834 819.96 92.8642 788.765 92.8642H767.318Z" fill="#F0F0F0"/>
<path d="M963.003 194.259C992.979 194.259 1014.91 179.635 1022.47 146.73H1016.86C1007.85 174.76 988.592 179.635 972.995 179.635C945.943 179.635 926.202 155.261 926.202 119.675V115.044H1019.3C1012.23 78.7274 985.424 65.3218 962.759 65.3218C930.345 65.3218 901.343 91.158 901.343 130.156C901.343 170.373 927.908 194.259 963.003 194.259ZM962.028 71.1715C982.256 71.1715 990.298 87.7457 991.03 107.976H926.933C930.589 83.3584 944.48 71.1715 962.028 71.1715Z" fill="#F0F0F0"/>
<path d="M1083.43 194.259C1113.41 194.259 1135.34 178.416 1135.34 156.236C1135.34 134.056 1118.04 123.331 1097.57 117.969L1082.7 114.069C1072.71 111.388 1064.42 105.295 1064.42 91.8892C1064.42 78.4836 1076.37 71.4152 1088.79 71.4152C1095.62 71.4152 1101.71 72.1464 1104.64 77.0212L1124.13 108.951H1129.25L1123.4 70.684C1114.14 67.0279 1104.39 65.3218 1094.4 65.3218C1069.05 65.3218 1046.63 77.5087 1046.63 100.908C1046.63 120.163 1059.31 133.325 1077.58 138.199L1092.21 142.099C1104.15 145.512 1115.36 151.361 1115.36 165.742C1115.36 180.61 1098.79 188.409 1086.36 188.409C1077.34 188.409 1072.22 188.166 1068.57 181.585L1050.29 146.974H1045.41L1050.53 190.116C1061.01 193.04 1071.49 194.259 1083.43 194.259Z" fill="#F0F0F0"/>
<path d="M1221.54 194.259C1255.42 194.259 1287.1 168.667 1287.1 128.937C1287.1 91.8892 1257.12 65.3218 1222.27 65.3218C1189.13 65.3218 1156.71 90.6705 1156.71 130.4C1156.71 167.692 1186.69 194.259 1221.54 194.259ZM1222.03 187.191C1201.56 187.191 1183.28 170.86 1183.28 129.669C1183.28 87.9894 1201.56 71.9027 1222.03 71.9027C1242.01 71.9027 1260.29 87.9894 1260.29 129.669C1260.29 170.86 1242.01 187.191 1222.03 187.191Z" fill="#F0F0F0"/>
<path d="M1305.9 191.334H1369.27V185.728L1356.1 184.997C1347.57 184.753 1346.6 183.778 1346.6 177.197V116.994C1346.6 99.4451 1355.62 87.0145 1384.13 88.9644L1393.64 89.9393V66.7842H1391.44C1370.24 66.7842 1352.69 77.2649 1346.6 103.589V65.078L1305.9 80.6773V82.1397L1323.69 92.133V177.197C1323.69 183.778 1322.47 184.997 1314.43 185.241L1305.9 185.728V191.334Z" fill="#F0F0F0"/>
<path d="M1448.72 81.4085H1488.2L1496 68.9778H1448.72V42.6541H1447.26L1399.49 79.9461V81.4085H1425.81V168.667C1425.81 187.922 1434.1 193.284 1451.4 193.284C1466.27 193.284 1482.84 186.216 1490.15 180.366L1487.96 175.979C1480.89 179.635 1473.33 181.341 1465.29 181.341C1454.57 181.341 1448.72 176.954 1448.72 162.329V81.4085Z" fill="#F0F0F0"/>
</svg>
