<svg width="12" height="18" viewBox="0 0 12 18" fill="none" xmlns="http://www.w3.org/2000/svg">
<path d="M9.6688 10H7V18H3V10H0V7H3V4.53906C3 3.60156 3 2.5 4 1.5C5 0.5 6.37591 0 8.18796 0C10 0 11.5 0.5 11.5 0.5L10 3.5C10 3.5 8 3 7.5 3.5C7 4 7 4.26562 7 4.75781V7H10.5L9.6688 10Z" fill="#1C1C1C"/>
<path d="M9.6688 10H7V18H3V10H0V7H3V4.53906C3 3.60156 3 2.5 4 1.5C5 0.5 6.37591 0 8.18796 0C10 0 11.5 0.5 11.5 0.5L10 3.5C10 3.5 8 3 7.5 3.5C7 4 7 4.26562 7 4.75781V7H10.5L9.6688 10Z" fill="#1C1C1C"/>
</svg>
