<svg width="18" height="18" viewBox="0 0 18 18" fill="none" xmlns="http://www.w3.org/2000/svg">
<path d="M17.9598 5.30357C17.9866 6.02679 18 7.25893 18 9C18 10.7411 17.9866 11.9732 17.9598 12.6964C17.8795 14.3304 17.3839 15.6027 16.4732 16.5134C15.5893 17.3973 14.3304 17.8661 12.6964 17.9196C11.9732 17.9732 10.7411 18 9 18C7.25893 18 6.02679 17.9732 5.30357 17.9196C3.66964 17.8393 2.41071 17.3571 1.52679 16.4732C1.17857 16.1518 0.897321 15.7768 0.683036 15.3482C0.46875 14.9196 0.308036 14.5045 0.200893 14.1027C0.120536 13.7009 0.0803571 13.2321 0.0803571 12.6964C0.0267857 11.9732 0 10.7411 0 9C0 7.25893 0.0267857 6.01339 0.0803571 5.26339C0.160714 3.65625 0.642857 2.41071 1.52679 1.52679C2.41071 0.616072 3.66964 0.120536 5.30357 0.0401786C6.02679 0.0133929 7.25893 0 9 0C10.7411 0 11.9732 0.0133929 12.6964 0.0401786C14.3304 0.120536 15.5893 0.616072 16.4732 1.52679C17.3839 2.41071 17.8795 3.66964 17.9598 5.30357ZM15.6384 14.3036C15.7187 14.0893 15.7857 13.8214 15.8393 13.5C15.8929 13.1518 15.933 12.75 15.9598 12.2946C15.9866 11.8125 16 11.4241 16 11.1295C16 10.8348 16 10.4196 16 9.88393C16 9.34822 16 9.05357 16 9C16 8.91964 16 8.625 16 8.11607C16 7.58036 16 7.16518 16 6.87054C16 6.57589 15.9866 6.20089 15.9598 5.74554C15.933 5.26339 15.8929 4.86161 15.8393 4.54018C15.7857 4.19196 15.7187 3.91071 15.6384 3.69643C15.317 2.86607 15.1339 2.68304 14.3036 2.36161C14.0893 2.28125 13.808 2.21429 13.4598 2.16071C13.1384 2.10714 12.7366 2.06696 12.2545 2.04018C11.7991 2.01339 11.4241 2 11.1295 2C10.8616 2 10.4464 2 9.88393 2C9.34822 2 9.05357 2 9 2C8.94643 2 8.65179 2 8.11607 2C7.58036 2 7.16518 2 6.87054 2C6.57589 2 6.1875 2.01339 5.70536 2.04018C5.25 2.06696 4.84821 2.10714 4.5 2.16071C4.17857 2.21429 3.91071 2.28125 3.69643 2.36161C2.86607 2.68304 2.68304 2.86607 2.36161 3.69643C2.28125 3.91071 2.21429 4.19196 2.16071 4.54018C2.10714 4.86161 2.06696 5.26339 2.04018 5.74554C2.01339 6.20089 2 6.57589 2 6.87054C2 7.13839 2 7.55357 2 8.11607C2 8.65179 2 8.94643 2 9C2 9.10714 2 9.36161 2 9.76339C2 10.1384 2 10.4598 2 10.7277C2 10.9688 2 11.2902 2 11.692C2.02679 12.0938 2.05357 12.442 2.08036 12.7366C2.10714 13.0045 2.14732 13.2857 2.20089 13.5804C2.25446 13.875 2.30804 14.1161 2.36161 14.3036C2.70982 15.1339 2.89286 15.317 3.69643 15.6384C3.91071 15.7187 4.17857 15.7857 4.5 15.8393C4.84821 15.8929 5.25 15.933 5.70536 15.9598C6.1875 15.9866 6.5625 16 6.83036 16C7.125 16 7.54018 16 8.07589 16C8.63839 16 8.94643 16 9 16C9.08036 16 9.375 16 9.88393 16C10.4196 16 10.8348 16 11.1295 16C11.4241 16 11.7991 15.9866 12.2545 15.9598C12.7366 15.933 13.1384 15.8929 13.4598 15.8393C13.808 15.7857 14.0893 15.7187 14.3036 15.6384C15.1339 15.2902 15.317 15.1071 15.6384 14.3036Z" fill="#1C1C1C"/>
<path fill-rule="evenodd" clip-rule="evenodd" d="M9 12C10.6569 12 12 10.6569 12 9C12 7.34315 10.6569 6 9 6C7.34315 6 6 7.34315 6 9C6 10.6569 7.34315 12 9 12ZM9 14C11.7614 14 14 11.7614 14 9C14 6.23858 11.7614 4 9 4C6.23858 4 4 6.23858 4 9C4 11.7614 6.23858 14 9 14Z" fill="#1C1C1C"/>
<path d="M15 4C15 4.55228 14.5523 5 14 5C13.4477 5 13 4.55228 13 4C13 3.44772 13.4477 3 14 3C14.5523 3 15 3.44772 15 4Z" fill="#1C1C1C"/>
</svg>
