<svg width="441" height="313" viewBox="0 0 441 313" fill="none" xmlns="http://www.w3.org/2000/svg">
<path d="M436.178 312.905C436.087 312.9 435.995 312.894 435.904 312.889C310.323 305.263 185.264 267.426 80.8702 196.37C55.3336 179.271 31.969 159.284 8.66935 139.352L8.665 139.348L8.49394 139.202C6.25344 137.285 4.01362 135.369 1.77236 133.456L0.993164 132.791C1.26576 132.586 1.53855 132.38 1.81136 132.175C53.1042 93.5798 108.324 59.7559 168.624 37.1245C210.323 20.8199 253.683 9.06287 297.623 0.789894C297.774 0.761457 297.925 0.733063 298.076 0.704712C299.37 0.7931 300.663 0.884888 301.955 0.980066L301.979 0.993807L299.316 1.49013C254.911 9.76764 211.097 21.5909 168.988 38.0559L168.975 38.0608C108.862 60.6221 53.7846 94.3371 2.5907 132.84C4.83289 134.754 7.07337 136.67 9.31388 138.587L9.31637 138.589C32.6228 158.527 55.942 178.475 81.4265 195.539L81.4328 195.543C185.658 266.484 310.536 304.274 435.963 311.891C437.422 311.977 438.881 312.059 440.341 312.137C438.954 312.397 437.567 312.653 436.178 312.905Z" fill="white" fill-opacity="0.72"/>
</svg>
