<svg width="634" height="313" viewBox="0 0 634 313" fill="none" xmlns="http://www.w3.org/2000/svg">
<path opacity="0.64" d="M437.078 312.741C331.794 306.748 227.636 279.311 134.726 229.236C85.7805 203.434 41.8632 169.323 0.702148 132.578L1.92511 131.687C28.0013 112.691 54.1255 93.6602 82.2486 77.7671C149.044 39.6902 222.69 13.774 298.417 0.728088C479.313 13.171 641.936 92.0632 762.057 213.174C745.535 214.001 728.964 214.167 712.377 213.643C709.379 213.729 706.261 213.451 703.124 213.172L703.122 213.172C695.091 212.456 686.938 211.73 680.369 217.075C607.078 265.653 523.426 296.945 437.078 312.741Z" fill="black"/>
</svg>
