<svg width="12" height="16" viewBox="0 0 12 16" fill="none" xmlns="http://www.w3.org/2000/svg">
<path d="M5.61922 14.7911C5.60725 14.7768 5.59517 14.7623 5.58298 14.7478C5.59417 14.7611 5.60526 14.7744 5.61626 14.7875L5.61922 14.7911ZM1.07107 8.08846C0.959471 7.83965 0.863064 7.60073 0.782879 7.37319C0.919069 7.75943 1.10121 8.17622 1.3224 8.61532C1.23274 8.43735 1.14868 8.26149 1.07107 8.08846ZM8.49957 6C8.49957 7.38071 7.38028 8.5 5.99957 8.5C4.61886 8.5 3.49957 7.38071 3.49957 6C3.49957 4.61929 4.61886 3.5 5.99957 3.5C7.38028 3.5 8.49957 4.61929 8.49957 6Z" stroke="white"/>
</svg>
