<svg width="18" height="15" viewBox="0 0 18 15" fill="none" xmlns="http://www.w3.org/2000/svg">
<path d="M16.1367 3.8125C16.1602 3.90385 16.1719 4.05228 16.1719 4.25781C16.1719 5.46815 15.9375 6.67849 15.4688 7.88882C15 9.07632 14.332 10.1725 13.4648 11.1773C12.6211 12.1593 11.5195 12.9585 10.1602 13.5751C8.80078 14.1917 7.30078 14.5 5.66016 14.5C3.59766 14.5 1.71094 13.9633 0 12.89C0.257812 12.9129 0.550781 12.9243 0.878906 12.9243C2.58984 12.9243 4.125 12.4105 5.48438 11.3828C4.66406 11.3828 3.9375 11.1544 3.30469 10.6977C2.69531 10.2181 2.27344 9.6244 2.03906 8.91647C2.27344 8.9393 2.49609 8.95072 2.70703 8.95072C3.03516 8.95072 3.36328 8.91647 3.69141 8.84796C3.12891 8.73377 2.625 8.50541 2.17969 8.16286C1.73438 7.82031 1.38281 7.40926 1.125 6.92969C0.867187 6.42728 0.738281 5.89062 0.738281 5.31971V5.2512C1.25391 5.54808 1.80469 5.70793 2.39062 5.73077C1.28906 5 0.738281 3.99519 0.738281 2.71635C0.738281 2.07692 0.914062 1.47175 1.26562 0.900841C2.17969 2.01983 3.29297 2.91046 4.60547 3.57272C5.94141 4.23498 7.35938 4.60036 8.85938 4.66887C8.8125 4.39483 8.78906 4.12079 8.78906 3.84675C8.78906 2.86478 9.14062 2.01983 9.84375 1.3119C10.5703 0.603966 11.4375 0.25 12.4453 0.25C13.5234 0.25 14.4258 0.626803 15.1523 1.38041C15.9961 1.22055 16.7812 0.935096 17.5078 0.524038C17.2266 1.36899 16.6875 2.03125 15.8906 2.51082C16.5938 2.41947 17.2969 2.22536 18 1.92849C17.4844 2.65925 16.8633 3.28726 16.1367 3.8125Z" fill="#1C1C1C"/>
</svg>
