<svg width="182" height="32" viewBox="0 0 182 32" fill="none" xmlns="http://www.w3.org/2000/svg">
<path d="M91.0032 0C93 0 102.871 0.386837 110.494 4.8024C115.08 7.45752 119.453 8.70708 124.099 8.66955C128.756 8.63194 133.732 7.30083 139.522 4.72074C148.95 0.518235 158.099 0.277363 165.613 1.73739C173.11 3.1941 179.026 6.35368 182 9.0197L181.107 10.147C178.354 7.67877 172.674 4.60818 165.364 3.1877C158.07 1.77052 149.2 2.00541 140.057 6.08051C134.171 8.70387 129.009 10.1042 124.11 10.1438C119.199 10.1835 114.596 8.85594 109.831 6.09734C102.531 1.86812 92.566 1.49312 91 1.48998C89.434 1.49312 79.4695 1.86812 72.1687 6.09734C67.4037 8.85594 62.8011 10.1835 57.8904 10.1438C52.9906 10.1042 47.829 8.70387 41.9427 6.08051C32.7999 2.00541 23.9297 1.77052 16.6362 3.1877C9.32576 4.60818 3.64622 7.67877 0.893219 10.147L0 9.0197C2.97362 6.35368 8.89026 3.1941 16.3872 1.73739C23.9012 0.277363 33.0496 0.518235 42.4783 4.72074C48.2676 7.30083 53.2439 8.63194 57.9009 8.66955C62.5469 8.70708 66.9199 7.45752 71.5061 4.8024C79.1287 0.386837 89 0 90.9968 0H91.0032Z" fill="#D9C287"/>
<path d="M91.0032 10.9265C93 10.9265 102.871 11.3133 110.494 15.7289C115.08 18.384 119.453 19.6336 124.099 19.596C128.756 19.5584 133.732 18.2273 139.522 15.6472C148.95 11.4447 158.099 11.2039 165.613 12.6639C173.11 14.1206 179.026 17.2802 182 19.9462L181.107 21.0735C178.354 18.6053 172.674 15.5347 165.364 14.1142C158.07 12.697 149.2 12.9319 140.057 17.007C134.171 19.6304 129.009 21.0307 124.11 21.0703C119.199 21.11 114.596 19.7824 109.831 17.0238C102.531 12.7946 92.566 12.4196 91 12.4165C89.434 12.4196 79.4695 12.7946 72.1687 17.0238C67.4037 19.7824 62.8011 21.11 57.8904 21.0703C52.9906 21.0307 47.829 19.6304 41.9427 17.007C32.7999 12.9319 23.9297 12.697 16.6362 14.1142C9.32576 15.5347 3.64622 18.6053 0.893219 21.0735L0 19.9462C2.97362 17.2802 8.89026 14.1206 16.3872 12.6639C23.9012 11.2039 33.0496 11.4447 42.4783 15.6472C48.2676 18.2273 53.2439 19.5584 57.9009 19.596C62.5469 19.6336 66.9199 18.384 71.5061 15.7289C79.1287 11.3133 89 10.9265 90.9968 10.9265H91.0032Z" fill="#D9C287"/>
<path d="M91.0032 21.853C93 21.853 102.871 22.2398 110.494 26.6554C115.08 29.3105 119.453 30.5601 124.099 30.5225C128.756 30.4849 133.732 29.1538 139.522 26.5737C148.95 22.3712 158.099 22.1304 165.613 23.5904C173.11 25.0471 179.026 28.2067 182 30.8727L181.107 32C178.354 29.5318 172.674 26.4612 165.364 25.0407C158.07 23.6235 149.2 23.8584 140.057 27.9335C134.171 30.5569 129.009 31.9572 124.11 31.9968C119.199 32.0365 114.596 30.7089 109.831 27.9503C102.531 23.7211 92.566 23.3461 91 23.343C89.434 23.3461 79.4695 23.7211 72.1687 27.9503C67.4037 30.7089 62.8011 32.0365 57.8904 31.9968C52.9906 31.9572 47.829 30.5569 41.9427 27.9335C32.7999 23.8584 23.9297 23.6235 16.6362 25.0407C9.32576 26.4612 3.64622 29.5318 0.893219 32L0 30.8727C2.97362 28.2067 8.89026 25.0471 16.3872 23.5904C23.9012 22.1304 33.0496 22.3712 42.4783 26.5737C48.2676 29.1538 53.2439 30.4849 57.9009 30.5225C62.5469 30.5601 66.9199 29.3105 71.5061 26.6554C79.1287 22.2398 89 21.853 90.9968 21.853H91.0032Z" fill="#D9C287"/>
</svg>
