<svg width="157" height="653" viewBox="0 0 157 653" fill="none" xmlns="http://www.w3.org/2000/svg">
<path d="M665.308 164.567C704.17 107.65 730.207 42.7993 747.172 -23.8192C754.608 -52.4584 760.043 -81.5752 765.207 -110.708M665.308 164.567L765.207 -110.708M665.308 164.567C636.921 206.549 601.743 243.687 562.666 275.843M665.308 164.567L562.666 275.843M765.207 -110.708L764.715 -110.795C764.699 -110.71 764.684 -110.624 764.669 -110.539L764.853 -110.355L765.207 -110.708ZM376.857 91.2351L376.469 90.9199C376.61 90.7466 376.75 90.5733 376.891 90.4001C376.88 90.6784 376.869 90.9568 376.857 91.2351ZM376.857 91.2351L377.357 91.2561C377.366 91.0329 377.375 90.8098 377.384 90.5866C377.208 90.8026 377.033 91.0188 376.857 91.2351ZM562.666 275.843C562.445 275.852 562.224 275.862 562.003 275.871L562.024 276.371M562.666 275.843C562.452 276.019 562.238 276.195 562.024 276.371M562.024 276.371L562.341 276.757C562.512 276.617 562.683 276.476 562.854 276.336C562.577 276.347 562.301 276.359 562.024 276.371ZM556.732 494.613L557.057 494.233C557.204 494.36 557.352 494.486 557.5 494.613C557.244 494.613 556.988 494.613 556.732 494.613ZM556.732 494.613L556.731 495.113C556.926 495.113 557.12 495.113 557.315 495.113C557.121 494.946 556.926 494.78 556.732 494.613ZM158.742 97.0042C158.74 96.7417 158.739 96.4793 158.737 96.2168C158.867 96.3727 158.997 96.5288 159.126 96.6849L158.742 97.0042ZM158.742 97.0042C158.574 96.8022 158.406 96.6004 158.238 96.3987C158.239 96.6016 158.24 96.8044 158.242 97.0072L158.742 97.0042ZM763.969 -111.239C764.053 -111.253 764.137 -111.266 764.22 -111.279L764.142 -111.773L763.789 -111.419L763.969 -111.239ZM269.463 -223.385C269.573 -223.255 269.682 -223.126 269.791 -222.996C269.898 -223.127 270.005 -223.258 270.113 -223.39C270.004 -223.52 269.895 -223.649 269.785 -223.779C269.678 -223.648 269.571 -223.517 269.463 -223.385ZM664.414 643.016C664.481 643.173 664.548 643.33 664.614 643.487C664.782 643.456 664.95 643.425 665.118 643.394C665.052 643.237 664.985 643.08 664.918 642.923C664.75 642.954 664.582 642.985 664.414 643.016ZM876.601 383.067C876.47 383.174 876.338 383.282 876.207 383.389C876.337 383.498 876.467 383.607 876.597 383.716C876.728 383.609 876.859 383.502 876.991 383.394C876.861 383.285 876.731 383.176 876.601 383.067ZM9.74515 -11.3423L10.2128 -11.1346C10.2473 -11.3016 10.282 -11.4687 10.3166 -11.6356L9.84906 -11.8432C9.81437 -11.6763 9.77972 -11.5093 9.74515 -11.3423ZM74.4721 302.419L74.8853 302.138C74.8851 302.137 74.885 302.137 74.8848 302.137L74.4721 302.419ZM217.147 429.339C217.14 429.336 217.133 429.332 217.126 429.328C217.118 429.325 217.11 429.323 217.102 429.32L216.924 429.787L217.147 429.339ZM401.963 608.248C401.962 608.247 401.962 608.247 401.962 608.247L401.739 608.695L401.963 608.248Z" stroke="#D9C287"/>
</svg>
