<svg width="20" height="22" viewBox="0 0 20 22" fill="none" xmlns="http://www.w3.org/2000/svg">
<path fill-rule="evenodd" clip-rule="evenodd" d="M14.0002 4C14.0002 6.20914 12.2095 8 10.0002 8C7.79114 8 6.00024 6.20914 6.00024 4C6.00024 1.79086 7.79114 0 10.0002 0C12.2095 0 14.0002 1.79086 14.0002 4ZM10 6C11.1046 6 12 5.10457 12 4C12 2.89543 11.1046 2 10 2C8.89539 2 8 2.89543 8 4C8 5.10457 8.89539 6 10 6Z" fill="#D9C287"/>
<path fill-rule="evenodd" clip-rule="evenodd" d="M0 18C2.19238 20.394 6.10718 22 10 22C13.8928 22 17.8076 20.394 20 18C18.7288 13.3285 14.4814 10 10.0002 10C5.51904 10 1.27124 13.3285 0 18ZM2 17.3333C3.75391 18.9294 6.88574 20 10 20C13.1143 20 16.2461 18.9294 18 17.3333C16.983 14.219 13.5852 12 10.0002 12C6.41528 12 3.01697 14.219 2 17.3333Z" fill="#D9C287"/>
</svg>
