<svg width="146" height="8" viewBox="0 0 146 8" fill="none" xmlns="http://www.w3.org/2000/svg">
<path d="M73.0025 0C74.6044 0 82.5231 0.304986 88.6379 3.78626C92.317 5.87958 95.825 6.86475 99.552 6.83516C103.288 6.80551 107.28 5.75605 111.924 3.72188C119.488 0.408582 126.827 0.218675 132.854 1.36977C138.868 2.51826 143.615 5.0093 146 7.11122L145.283 8C143.075 6.05402 138.519 3.63314 132.654 2.51321C126.804 1.3959 119.688 1.58109 112.354 4.79394C107.632 6.86222 103.491 7.96629 99.5605 7.99749C95.6211 8.02876 91.9289 6.98211 88.1064 4.80721C82.2497 1.47285 74.2563 1.17719 73 1.17471C71.7437 1.17719 63.7503 1.47285 57.8936 4.80721C54.0711 6.98211 50.3789 8.02876 46.4395 7.99749C42.509 7.96629 38.3683 6.86222 33.6463 4.79394C26.312 1.58109 19.1964 1.3959 13.3456 2.51321C7.4811 3.63314 2.92499 6.05402 0.716538 8L0 7.11122C2.38543 5.0093 7.13175 2.51826 13.1458 1.36977C19.1735 0.218675 26.5124 0.408582 34.076 3.72188C38.7201 5.75605 42.7121 6.80551 46.448 6.83516C50.175 6.86475 53.683 5.87958 57.3621 3.78626C63.4769 0.304986 71.3956 0 72.9975 0H73.0025Z" fill="#D9C287"/>
</svg>
