<svg width="59" height="40" viewBox="0 0 59 40" fill="none" xmlns="http://www.w3.org/2000/svg">
<path d="M19.1079 6.65639C19.9764 6.65639 20.7209 5.9168 20.7209 5.05393V1.60247C20.7209 0.7396 19.9764 0 19.1079 0C18.2393 0 17.4948 0.7396 17.4948 1.60247V5.05393C17.4948 5.97843 18.2393 6.65639 19.1079 6.65639Z" fill="#D9C287"/>
<path d="M8.06477 10.2928C8.37497 10.6009 8.80925 10.7858 9.18149 10.7858C9.61577 10.7858 9.98801 10.6009 10.2982 10.2928C10.9186 9.67643 10.9186 8.69029 10.2982 8.07396L7.87865 5.67026C7.25825 5.05393 6.26561 5.05393 5.64521 5.67026C5.02481 6.2866 5.02481 7.27273 5.64521 7.88906L8.06477 10.2928Z" fill="#D9C287"/>
<path d="M6.63785 19.0447C6.63785 18.1818 5.89337 17.4422 5.02481 17.4422H1.61261C0.744052 17.4422 -0.000427246 18.1818 -0.000427246 19.0447C-0.000427246 19.9076 0.744052 20.6472 1.61261 20.6472H5.08685C5.95541 20.6472 6.63785 19.9076 6.63785 19.0447Z" fill="#D9C287"/>
<path d="M8.06477 27.7966L5.64521 30.2003C5.02481 30.8166 5.02481 31.8028 5.64521 32.4191C5.95541 32.7273 6.38969 32.9122 6.76193 32.9122C7.13417 32.9122 7.56845 32.7273 7.87865 32.4191L10.2982 30.0154C10.9186 29.3991 10.9186 28.4129 10.2982 27.7966C9.67781 27.1803 8.68517 27.1803 8.06477 27.7966Z" fill="#D9C287"/>
<path d="M29.0343 10.7858C29.4686 10.7858 29.8408 10.6009 30.151 10.2928L32.5706 7.88906C33.191 7.27273 33.191 6.2866 32.5706 5.67026C31.9502 5.05393 30.9575 5.05393 30.3371 5.67026L27.9176 8.07396C27.2972 8.69029 27.2972 9.67643 27.9176 10.2928C28.2278 10.6009 28.662 10.7858 29.0343 10.7858Z" fill="#D9C287"/>
<path d="M53.416 23.6672C52.7335 19.4145 49.0111 16.0863 44.5443 16.0863C43.3655 16.0863 42.1868 16.3328 41.1321 16.7643C38.9607 14.9153 36.2309 13.8675 33.3771 13.8675C31.4538 13.8675 29.6547 14.2989 28.0416 15.1002C26.5527 11.7103 23.1405 9.36826 19.1699 9.36826C13.7724 9.36826 9.42965 13.6826 9.42965 19.0447C9.42965 23.0508 11.9112 26.4407 15.3855 27.9199C15.1373 28.7211 15.0132 29.584 15.0132 30.5085C15.0132 35.7473 19.294 40 24.5674 40H50.5001C55.2151 40 58.9996 36.2404 58.9996 31.5562C58.9375 28.0431 56.6421 24.8382 53.416 23.6672ZM12.5937 19.0447C12.5937 15.47 15.5096 12.5732 19.1079 12.5732C21.9617 12.5732 24.4433 14.4222 25.3119 17.0108C24.009 18.1818 23.0164 19.661 22.334 21.3251C20.0385 21.8798 18.0532 23.2357 16.7504 25.0847C14.2688 24.0986 12.5937 21.7565 12.5937 19.0447ZM50.4381 36.7951H24.5054C21.0311 36.7951 18.1773 33.9599 18.1773 30.5085C18.1773 27.3652 20.5348 24.6533 23.6988 24.2835C24.3192 24.2219 24.8776 23.7904 25.0637 23.1741C26.1804 19.5378 29.5306 17.0724 33.3771 17.0724C35.7966 17.0724 38.0301 18.0586 39.7052 19.7843C40.2015 20.339 41.008 20.4622 41.6904 20.0924C42.559 19.5994 43.6137 19.2912 44.6063 19.2912C47.7083 19.2912 50.314 21.8182 50.376 24.8998C50.376 25.6394 50.9344 26.2558 51.6168 26.4407C54.0364 26.9337 55.7735 29.1525 55.7735 31.5562C55.7115 34.453 53.3539 36.7951 50.4381 36.7951Z" fill="#D9C287"/>
</svg>
