<svg width="48" height="48" viewBox="0 0 48 48" fill="none" xmlns="http://www.w3.org/2000/svg">
<circle cx="24" cy="24" r="23.5" stroke="#D9C287"/>
<path d="M28.6688 25H26V33H22V25H19V22H22V19.5391C22 18.6016 22 17.5 23 16.5C24 15.5 25.3759 15 27.188 15C29 15 30.5 15.5 30.5 15.5L29 18.5C29 18.5 27 18 26.5 18.5C26 19 26 19.2656 26 19.7578V22H29.5L28.6688 25Z" fill="#D9C287"/>
<path d="M28.6688 25H26V33H22V25H19V22H22V19.5391C22 18.6016 22 17.5 23 16.5C24 15.5 25.3759 15 27.188 15C29 15 30.5 15.5 30.5 15.5L29 18.5C29 18.5 27 18 26.5 18.5C26 19 26 19.2656 26 19.7578V22H29.5L28.6688 25Z" fill="#D9C287"/>
</svg>
