<svg width="955" height="924" viewBox="0 0 955 924" fill="none" xmlns="http://www.w3.org/2000/svg">
<path d="M729.531 -399.879L729.532 -399.878C816.7 -314.852 893.109 -217.488 945.989 -107.492L945.99 -107.49C985.454 -26.3414 1011.33 61.006 1026.01 149.922L1026.25 151.399L1026.94 150.072C1119.78 -27.835 1280.6 -169.358 1469.39 -237.994C1479.98 -172.729 1485.11 -106.394 1479.78 -40.4174L1479.78 -40.4136C1469.71 97.3185 1425.3 231.66 1356.28 351.068L1355.6 352.241L1356.88 351.79C1399.5 336.747 1443.39 325.071 1488.12 318.27L1488.13 318.269C1551.74 307.707 1616.56 309.415 1680.37 317.231C1679.32 320.205 1678.27 323.181 1677.22 326.158C1667 355.075 1656.77 384.04 1643.22 411.588L1643.22 411.592C1588.38 525.233 1499.06 620.465 1394.18 689.818C1274.71 768.516 1132.07 815.95 988.219 811.402L988.204 811.402L988.189 811.402C985.551 811.478 982.812 811.269 980.023 811.024C979.68 810.994 979.336 810.964 978.992 810.933C976.544 810.715 974.065 810.494 971.623 810.446C966.053 810.335 960.582 811.118 955.881 814.93C860.649 878.018 747.906 911.933 634.479 920.591C495.382 930.98 352.483 904.39 229.352 838.058L229.348 838.056C180.608 812.373 136.845 778.446 95.8091 741.869L96.5227 741.349C122.621 722.346 148.74 703.328 176.853 687.447L176.855 687.446C243.948 649.218 317.955 623.254 394.043 610.276L395.422 610.04L394.207 609.348C275.497 541.767 170.906 448.42 93.3139 335.864L93.312 335.862C54.42 280.25 24.7549 218.884 0.765288 155.563C198.595 120.524 408.626 162.8 578.082 270.386L579.356 271.194L578.817 269.785C535.727 157.114 513.426 36.2012 517.217 -84.5332L517.217 -84.5352C521.185 -228.667 558.912 -369.729 610.323 -503.785L612.403 -504.342C652.465 -470.662 692.248 -436.589 729.531 -399.879Z" stroke="#D9C287"/>
</svg>
