<svg width="48" height="48" viewBox="0 0 48 48" fill="none" xmlns="http://www.w3.org/2000/svg">
<circle cx="24" cy="24" r="23.5" stroke="#D9C287"/>
<path d="M32.9598 20.3036C32.9866 21.0268 33 22.2589 33 24C33 25.7411 32.9866 26.9732 32.9598 27.6964C32.8795 29.3304 32.3839 30.6027 31.4732 31.5134C30.5893 32.3973 29.3304 32.8661 27.6964 32.9196C26.9732 32.9732 25.7411 33 24 33C22.2589 33 21.0268 32.9732 20.3036 32.9196C18.6696 32.8393 17.4107 32.3571 16.5268 31.4732C16.1786 31.1518 15.8973 30.7768 15.683 30.3482C15.4688 29.9196 15.308 29.5045 15.2009 29.1027C15.1205 28.7009 15.0804 28.2321 15.0804 27.6964C15.0268 26.9732 15 25.7411 15 24C15 22.2589 15.0268 21.0134 15.0804 20.2634C15.1607 18.6562 15.6429 17.4107 16.5268 16.5268C17.4107 15.6161 18.6696 15.1205 20.3036 15.0402C21.0268 15.0134 22.2589 15 24 15C25.7411 15 26.9732 15.0134 27.6964 15.0402C29.3304 15.1205 30.5893 15.6161 31.4732 16.5268C32.3839 17.4107 32.8795 18.6696 32.9598 20.3036ZM30.6384 29.3036C30.7187 29.0893 30.7857 28.8214 30.8393 28.5C30.8929 28.1518 30.933 27.75 30.9598 27.2946C30.9866 26.8125 31 26.4241 31 26.1295C31 25.8348 31 25.4196 31 24.8839C31 24.3482 31 24.0536 31 24C31 23.9196 31 23.625 31 23.1161C31 22.5804 31 22.1652 31 21.8705C31 21.5759 30.9866 21.2009 30.9598 20.7455C30.933 20.2634 30.8929 19.8616 30.8393 19.5402C30.7857 19.192 30.7187 18.9107 30.6384 18.6964C30.317 17.8661 30.1339 17.683 29.3036 17.3616C29.0893 17.2812 28.808 17.2143 28.4598 17.1607C28.1384 17.1071 27.7366 17.067 27.2545 17.0402C26.7991 17.0134 26.4241 17 26.1295 17C25.8616 17 25.4464 17 24.8839 17C24.3482 17 24.0536 17 24 17C23.9464 17 23.6518 17 23.1161 17C22.5804 17 22.1652 17 21.8705 17C21.5759 17 21.1875 17.0134 20.7054 17.0402C20.25 17.067 19.8482 17.1071 19.5 17.1607C19.1786 17.2143 18.9107 17.2812 18.6964 17.3616C17.8661 17.683 17.683 17.8661 17.3616 18.6964C17.2812 18.9107 17.2143 19.192 17.1607 19.5402C17.1071 19.8616 17.067 20.2634 17.0402 20.7455C17.0134 21.2009 17 21.5759 17 21.8705C17 22.1384 17 22.5536 17 23.1161C17 23.6518 17 23.9464 17 24C17 24.1071 17 24.3616 17 24.7634C17 25.1384 17 25.4598 17 25.7277C17 25.9688 17 26.2902 17 26.692C17.0268 27.0938 17.0536 27.442 17.0804 27.7366C17.1071 28.0045 17.1473 28.2857 17.2009 28.5804C17.2545 28.875 17.308 29.1161 17.3616 29.3036C17.7098 30.1339 17.8929 30.317 18.6964 30.6384C18.9107 30.7187 19.1786 30.7857 19.5 30.8393C19.8482 30.8929 20.25 30.933 20.7054 30.9598C21.1875 30.9866 21.5625 31 21.8304 31C22.125 31 22.5402 31 23.0759 31C23.6384 31 23.9464 31 24 31C24.0804 31 24.375 31 24.8839 31C25.4196 31 25.8348 31 26.1295 31C26.4241 31 26.7991 30.9866 27.2545 30.9598C27.7366 30.933 28.1384 30.8929 28.4598 30.8393C28.808 30.7857 29.0893 30.7187 29.3036 30.6384C30.1339 30.2902 30.317 30.1071 30.6384 29.3036Z" fill="#D9C287"/>
<path fill-rule="evenodd" clip-rule="evenodd" d="M24 27C25.6569 27 27 25.6569 27 24C27 22.3431 25.6569 21 24 21C22.3431 21 21 22.3431 21 24C21 25.6569 22.3431 27 24 27ZM24 29C26.7614 29 29 26.7614 29 24C29 21.2386 26.7614 19 24 19C21.2386 19 19 21.2386 19 24C19 26.7614 21.2386 29 24 29Z" fill="#D9C287"/>
<path d="M30 19C30 19.5523 29.5523 20 29 20C28.4477 20 28 19.5523 28 19C28 18.4477 28.4477 18 29 18C29.5523 18 30 18.4477 30 19Z" fill="#D9C287"/>
</svg>
