<svg width="453" height="856" viewBox="0 0 453 856" fill="none" xmlns="http://www.w3.org/2000/svg">
<path d="M-306.396 -45.6913L-307.05 -43.2483C-301.225 -46.0214 -295.339 -48.6877 -289.368 -51.1058L-293.058 -52.0944C-297.44 -49.8226 -301.877 -47.6858 -306.396 -45.6913Z" fill="white"/>
<path d="M-308.946 -36.1719L-309.334 -34.7258C-299.047 -38.6059 -288.764 -42.6976 -279.324 -48.4145L-281.975 -49.1249C-290.493 -43.8228 -300.15 -40.8877 -308.946 -36.1719Z" fill="white"/>
<path d="M-311.177 -27.846L-311.546 -26.4701C-299.989 -29.6486 -288.908 -34.2488 -277.674 -38.3564C-274.578 -39.5284 -271.194 -40.2619 -267.915 -39.3683C-267.029 -34.9323 -268.239 -30.4713 -269.439 -26.2181C-274.264 -9.78382 -282.452 5.3429 -288.676 21.2215C-291.733 28.8144 -293.78 37.1293 -292.553 45.3434C-290.904 52.9934 -284.034 58.9427 -276.481 60.4397C-268.781 61.7805 -261.105 59.7292 -253.433 59.2115C-245.97 58.5175 -238.255 62.2702 -234.08 68.4602C-231.889 73.2457 -232.6 78.7587 -231.322 83.8111C-230.313 78.7544 -229.446 73.1629 -232.022 68.4098C-235.507 62.0585 -242.666 58.3045 -249.668 57.3913C-258.155 56.9682 -266.519 60.0693 -275.017 58.68C-282.558 57.7579 -289.659 52.0481 -290.834 44.3143C-292.084 35.176 -288.792 26.2014 -285.36 17.8813C-279.196 3.4614 -272.159 -10.6796 -267.822 -25.7998C-266.512 -30.5201 -265.136 -35.4333 -265.901 -40.3784C-269.645 -42.059 -273.873 -42.0481 -277.597 -40.3824C-288.696 -35.9376 -300.156 -32.4473 -311.177 -27.846Z" fill="white"/>
<path d="M-315.485 -11.7699L-315.869 -10.3378C-311.536 -8.66508 -306.564 -7.85968 -303.051 -4.58585C-300.908 -2.76271 -302.332 0.13645 -302.631 2.43376C-305.709 17.0037 -316.509 28.5261 -319.614 43.0885C-321.203 51.1501 -318.417 59.2703 -314.242 66.0773C-308.297 76.3231 -302.056 87.8219 -290.586 92.6559C-279.767 97.2252 -266.551 100.029 -259.836 110.602C-252.842 124.845 -260.004 141.978 -252.324 156.074C-248.267 164.445 -239.227 168.808 -234.862 176.87C-229.77 190.077 -234.471 204.423 -232.328 218.029C-231.604 223.46 -227.855 227.986 -223.193 230.619C-216.152 234.477 -208.027 235.465 -200.407 237.718C-196.313 238.544 -192.085 240.61 -187.877 239.27C-196.131 235.342 -205.547 235.468 -214.095 232.41C-220.897 230.467 -228.374 226.613 -230.088 219.095C-233.283 204.591 -227.186 188.904 -233.698 174.939C-238.381 167.56 -246.723 163.173 -250.678 155.206C-257.677 141.653 -251.684 125.517 -257.387 111.619C-260.502 105.231 -266.68 101.018 -272.783 97.7573C-280.843 93.3854 -290.689 92.4779 -297.644 86.1147C-303.481 80.6833 -307.512 73.6742 -311.682 66.959C-315.722 60.3234 -319.175 52.6717 -318 44.6949C-315.111 27.5163 -300.156 14.2931 -300.224 -3.63276C-302.97 -9.31954 -310.14 -9.94639 -315.485 -11.7699Z" fill="white"/>
<path d="M-318.999 1.34378L-319.777 4.25013C-317.621 13.1496 -321.685 21.5261 -326.365 28.8347L-328.592 37.1466C-322.451 26.5728 -313.82 14.0025 -318.999 1.34378Z" fill="white"/>
<path d="M-332.373 51.2571L-333.479 55.385C-330.194 65.0083 -323.732 73.045 -319.285 82.0919C-315.412 89.6907 -312.546 98.2987 -305.539 103.683C-295.52 112.191 -280.764 113.346 -272.099 123.598C-266.307 133.126 -267.902 144.857 -265.325 155.329C-262.276 168.245 -252.515 178.054 -247.879 190.266C-244.267 204.898 -252.183 220.865 -244.865 234.85C-238.133 246.706 -223.947 251.726 -211.247 254.045C-221.61 248.168 -235.44 246.645 -242.219 235.694C-251.835 220.296 -240.159 201.409 -247.688 185.457C-251.891 176.791 -258.299 169.341 -261.817 160.302C-266.713 148.276 -263.636 134.097 -270.566 122.76C-280.286 110.554 -298.583 110.437 -308.385 98.2551C-314.286 90.5943 -316.807 80.9802 -322.123 72.9343C-326.554 66.2394 -330.846 59.2506 -332.373 51.2571Z" fill="white"/>
<path d="M-337.963 72.121L-339.118 76.4314C-334.323 84.9093 -329.504 93.4088 -326.545 102.734C-322.736 114.725 -313.412 125.154 -301.024 128.413C-301.138 127.66 -301.37 126.168 -301.488 125.43C-306.207 121.215 -312.458 118.788 -316.334 113.611C-321.651 107.085 -323.357 98.6373 -326.819 91.1335C-329.812 84.4025 -333.996 78.3005 -337.963 72.121Z" fill="white"/>
<path d="M-344.329 95.8772L-345.371 99.7664C-341.157 110.692 -340.24 123.097 -332.809 132.567C-324.927 142.594 -313.525 149.366 -306.404 160.048C-301.44 167.954 -299.34 177.23 -294.846 185.371C-290.483 193.553 -284.029 201.226 -283.633 210.918C-282.679 228.344 -284.824 247.121 -275.891 262.938C-276.885 255.93 -279.492 249.272 -280.408 242.255C-281.949 231.173 -280.979 219.921 -282.002 208.812C-282.749 199.929 -288.756 192.947 -292.767 185.356C-297.196 177.533 -299.403 168.711 -303.729 160.84C-311.791 147.047 -327.545 139.741 -335.09 125.59C-339.41 116.126 -340.828 105.649 -344.329 95.8772Z" fill="white"/>
<path d="M-362.699 164.436L-363.421 167.132C-359.107 175.27 -358.119 184.489 -358.294 193.561C-358.441 202.807 -356.38 212.508 -350.156 219.639C-344.183 226.581 -335.161 230.112 -329.468 237.371C-325.032 242.924 -323.638 250.069 -321.599 256.71C-317.866 270.05 -310.878 282.125 -304.842 294.502C-299.481 304.516 -295.221 315.048 -291.075 325.609C-286.33 337.866 -278.356 348.956 -276.22 362.139C-273.809 377.156 -275.855 392.424 -278.317 407.279C-280.406 419.059 -276.58 430.648 -275.51 442.311C-274.235 451.246 -274.624 460.607 -271.008 469.055C-270.859 460.472 -272.769 452.06 -273.512 443.554C-274.561 431.475 -278.454 419.462 -276.372 407.258C-273.945 391.356 -271.524 374.97 -275.026 359.028C-276.894 350.176 -281.381 342.232 -285.224 334.129C-290.781 322.603 -294.705 310.371 -300.517 298.956C-306.309 286.51 -313.709 274.791 -318.016 261.688C-320.62 254.459 -321.848 246.696 -325.462 239.874C-331.889 228.34 -346.75 224.825 -352.587 212.832C-358.247 202.362 -355.333 190.141 -357.453 178.919C-358.243 173.786 -360.502 169.088 -362.699 164.436Z" fill="white"/>
<path d="M-408.314 334.675L-409.048 337.413C-404.31 333.084 -399.687 328.514 -394.214 325.09C-387.343 320.882 -379.09 320.55 -371.357 319.296C-364.513 318.391 -357.806 316.532 -350.929 315.952C-341.738 315.375 -331.576 318.97 -326.87 327.334C-318.16 340.503 -319.393 356.831 -317.75 371.853C-316.546 383.071 -316.879 394.358 -316.404 405.606C-315.996 414.519 -312.995 424.307 -318.046 432.494C-324.55 442.459 -337.432 445.869 -343.629 456.202C-348.573 462.703 -346.129 471.258 -343.548 478.179C-340.596 485.396 -338.537 492.975 -335.027 499.965C-335.428 487.097 -345.154 476.485 -344.747 463.517C-341.815 452.128 -330.565 446.671 -322.103 439.894C-314.581 434.039 -312.145 423.827 -313.664 414.737C-315.579 402.863 -314.324 390.829 -315.382 378.898C-316.133 369.412 -316.793 359.92 -317.607 350.447C-318.772 338.352 -322.858 325.098 -333.476 318.04C-341.725 312.293 -352.378 313.953 -361.656 315.696C-369.868 317.558 -378.299 318.159 -386.52 319.944C-395.406 321.851 -402.193 328.384 -408.314 334.675Z" fill="white"/>
<path d="M-437.753 444.54L-438.144 446.001C-432.894 449.078 -426.51 451.119 -423.078 456.493C-418.508 463.451 -416.889 471.831 -412.755 479.018C-408.493 486.51 -402.548 492.828 -397.527 499.787C-389.292 511.308 -377.628 520.859 -363.932 524.905C-369.766 520.137 -377.101 517.66 -382.852 512.748C-391.251 506.329 -396.813 497.179 -403.464 489.122C-407.841 483.796 -411.578 477.934 -414.196 471.544C-416.95 465.268 -418.823 458.401 -423.298 453.048C-427.025 448.664 -432.563 446.608 -437.753 444.54Z" fill="white"/>
<path d="M-443.535 466.12L-444.318 469.041C-440.501 482.854 -442.827 498.213 -434.879 510.801C-431.744 516.667 -430.192 523.162 -427.853 529.357C-425.818 534.838 -422.277 539.579 -418.638 544.121C-410.176 554.514 -402.221 565.509 -396.595 577.731C-392.893 585.405 -395.623 594.695 -401.329 600.615C-408.412 608.198 -417.523 613.973 -427.385 617.169C-440.22 621.3 -455.051 616.107 -463.096 605.449C-469.574 596.46 -469.969 584.917 -472.578 574.512L-473.7 578.696C-471.93 586.513 -470.619 594.524 -467.412 601.915C-461.876 613.631 -448.703 620.245 -436.105 620.476C-425.921 619.954 -416.283 615.464 -408.297 609.282C-401.938 604.515 -395.567 598.638 -393.899 590.507C-391.448 583.098 -394.914 575.608 -398.594 569.31C-404.877 559.034 -411.95 549.239 -419.627 539.958C-424.617 534.061 -427.134 526.675 -429.346 519.386C-431.889 510.699 -437.698 503.199 -438.86 494.069C-440.234 484.717 -440.066 475.056 -443.535 466.12Z" fill="white"/>
<path d="M-510.369 715.547L-511.415 719.45C-504.232 712.451 -497.826 704.536 -489.509 698.804C-482.996 694.304 -476.783 689.242 -469.577 685.861C-457.366 680.691 -443.719 680.766 -431.287 676.227C-412.575 670.361 -399.059 655.383 -382.353 645.894C-372.009 639.667 -362.424 632.288 -353.213 624.508C-346.263 618.606 -338.472 613.545 -332.786 606.296C-327.845 599.975 -323.956 592.756 -321.97 584.951C-325.975 589.686 -327.87 595.694 -331.182 600.872C-334.756 606.746 -339.857 611.474 -345.175 615.722C-357.659 625.559 -369.552 636.277 -383.361 644.27C-398.158 652.975 -410.533 665.491 -426.433 672.366C-438.184 677.84 -451.332 678.425 -463.672 681.891C-473.744 684.579 -481.882 691.382 -490.347 697.105C-497.958 702.168 -503.745 709.346 -510.369 715.547Z" fill="white"/>
<path d="M-531.275 793.569L-532.881 799.564C-526.205 795.017 -519.56 789.8 -511.484 788.112C-503.091 786.358 -494.489 787.474 -485.991 787.072C-476.03 786.762 -466.288 784.466 -456.536 782.58C-437.705 778.853 -418.419 780.213 -399.378 778.844C-385.71 777.661 -372.5 772.412 -361.737 763.89C-351.518 755.718 -339.502 750.375 -328.614 743.24C-314.565 734.183 -305.562 718.372 -289.478 712.328C-275.764 706.372 -260.541 710.496 -246.877 714.383C-237.955 716.939 -226.511 717.101 -220.172 709.154C-212.499 698.81 -214.641 684.362 -207.17 673.873C-201.522 666.207 -192.925 661.619 -185.877 655.456C-171.389 643.808 -159.395 627.775 -156.728 608.957C-154.149 596.752 -159.398 584.917 -160.065 572.82C-160.44 565.406 -161.555 558.064 -163.632 550.947C-167.231 538.23 -167.536 524.725 -165.244 511.735C-162.228 492.68 -147.583 478.034 -144.122 459.112C-143.592 455.733 -143.571 452.007 -145.608 449.114C-151.561 439.573 -162.875 435.277 -169.107 425.993C-173.676 419.757 -175.661 412.183 -177.278 404.752C-178.929 397.222 -182.126 390.075 -186.689 383.872C-193.589 374.498 -200.283 364.97 -206.521 355.142C-213.853 343.622 -217.385 330.261 -220.939 317.209C-224.49 304.31 -222.296 290.511 -226.546 277.755C-228.745 271.207 -235.576 268.248 -240.684 264.306C-251.236 257.28 -258.371 245.752 -260.608 233.34C-262.996 221.323 -259.05 209.063 -261.498 197.046C-263.541 185.257 -271.923 175.968 -275.214 164.628C-277.687 156.742 -277.747 148.269 -280.659 140.506C-284.13 132.473 -292.598 128.052 -300.631 125.825C-300.549 126.584 -300.367 128.092 -300.271 128.856C-295.221 132.737 -288.218 134.598 -285.089 140.598C-281.426 148.081 -281.607 156.67 -279.335 164.577C-276.459 176.062 -267.832 185.221 -265.739 196.993C-262.985 209.273 -267.04 221.88 -264.469 234.171C-262.401 244.071 -258.292 253.93 -250.83 260.985C-245.657 266.314 -239.041 269.847 -233.448 274.672C-229.565 277.969 -229.066 283.4 -228.41 288.136C-227.342 298.459 -227.03 308.911 -224.511 319.036C-221.487 330.14 -218.171 341.276 -213.116 351.645C-205.779 364.551 -197.043 376.613 -188.245 388.556C-179.576 400.254 -181.273 416.292 -172.602 428.036C-166.289 438.425 -152.444 442.361 -147.998 453.996C-148.936 472.871 -162.62 487.578 -167.487 505.295C-172.673 521.843 -171.04 539.707 -166.416 556.175C-164.727 562.271 -164.444 568.622 -163.99 574.898C-163.193 586.398 -158.265 597.635 -160.436 609.273C-164.359 629.244 -178.265 645.623 -194.46 657.189C-204.179 663.945 -214.031 672.546 -216.455 684.733C-218.348 693.481 -218.297 704.57 -226.853 709.847C-237.037 715.199 -248.389 710.035 -258.573 707.472C-270.272 703.946 -283.251 704.517 -294.242 710.074C-304.995 714.852 -312.738 723.943 -320.953 731.99C-330.553 741.441 -343.05 746.896 -354.31 753.961C-362.785 759.215 -370.341 766.038 -379.573 770.021C-395.732 776.796 -413.548 775.108 -430.621 775.98C-444.03 776.195 -457.285 778.361 -470.385 781.126C-480.908 783.363 -491.706 783.148 -502.401 783.112C-512.93 783.014 -522.837 787.553 -531.275 793.569Z" fill="white"/>
<path d="M-540.044 826.297L-541.5 831.73C-534.465 822.645 -527.431 812.837 -516.882 807.583C-507.76 802.774 -497.226 802.797 -487.299 801.153C-473.298 799.066 -459.817 794.206 -445.656 793.095C-425.214 791.545 -404.911 795.284 -384.549 796.391C-371.81 797.276 -358.918 799.888 -346.22 797.106C-329.328 793.491 -311.275 792.158 -296.351 782.644C-288.289 777.806 -281.846 770.82 -274.27 765.326C-268.56 761.243 -261.263 760.609 -254.467 760.775C-241.594 761.215 -228.712 762.966 -215.838 761.886C-204.889 760.922 -195.096 755.571 -185.203 751.254C-177.01 747.611 -168.62 743.343 -163.046 736.063C-158.936 730.603 -155.404 724.658 -152.791 718.33C-148.333 708.314 -155.809 698.004 -153.665 687.698C-150.367 669.049 -141.215 651.562 -128.697 637.445C-120.3 627.822 -108.592 621.554 -101.128 611.094C-97.3528 606.207 -97.0275 599.101 -100.364 593.933C-104.54 588.646 -110.012 584.546 -115.485 580.672C-112.418 585.331 -108.038 588.792 -104.008 592.55C-99.1973 596.593 -98.9395 604.216 -102.305 609.259C-106.903 616.484 -114.041 621.464 -120.413 627.009C-138.944 642.525 -151.652 664.868 -155.56 688.71C-156.968 696.715 -152.919 704.331 -153.276 712.286C-154.551 720.522 -159.442 727.609 -164.094 734.308C-169.216 741.528 -177.23 745.851 -185.188 749.287C-194.422 753.223 -203.424 758.26 -213.51 759.651C-228.283 761.591 -243.113 758.972 -257.914 758.828C-266.533 758.671 -274.814 762.306 -281.027 768.21C-291.131 777.526 -302.744 785.852 -316.294 789.173C-327.206 791.742 -338.241 793.871 -349.311 795.736C-360.96 797.746 -372.695 795.414 -384.327 794.555C-403.964 793.266 -423.546 790.201 -443.282 791.022C-457.513 791.724 -471.057 796.597 -485.024 798.949C-494.646 800.855 -504.718 800.624 -513.94 804.233C-525.041 808.18 -532.736 817.54 -540.044 826.297Z" fill="white"/>
<path d="M-289.12 -23.2451C-297.044 -23.6377 -305.12 -21.8892 -312.588 -19.2703C-303.778 -17.7524 -295.116 -24.0992 -286.495 -20.194C-283.563 -7.39985 -290.845 4.62871 -296.395 15.6319C-300.309 24.1237 -305.806 32.2367 -306.947 41.7125C-308.382 55.2626 -299.909 68.0819 -288.879 75.1756C-279.933 78.5961 -270.333 79.8592 -261.283 83.0065C-256.029 84.8355 -252.567 89.42 -248.211 92.6338C-250.512 85.456 -258.07 82.182 -264.601 79.9051C-273.846 76.5854 -284.924 77.3039 -292.433 70.1453C-301.256 62.785 -307.105 51.0001 -304.923 39.3804C-299.573 21.266 -285.887 6.21306 -284.013 -13.0132C-283.534 -16.9329 -284.088 -22.89 -289.12 -23.2451Z" fill="white"/>
<path d="M-511.15 765.99C-515.538 766.485 -520.335 766.824 -523.872 769.759C-517.726 769.209 -511.695 767.349 -505.474 767.646C-492.326 768.069 -478.923 769.223 -466.011 766.091C-448.129 762.426 -429.556 759.381 -413.649 749.844C-405.15 744.778 -396.649 738.975 -390.785 730.84C-396.671 733.672 -400.533 739.274 -405.969 742.783C-421.608 754.408 -440.735 759.411 -459.553 762.976C-466.736 764.422 -473.916 766.08 -481.279 766.229C-491.239 766.871 -501.196 765.482 -511.15 765.99Z" fill="white"/>
<path d="M-511.591 820.889C-524.468 828.318 -532.894 841.304 -540.367 853.763L-538.992 854.132C-531.609 844.026 -525.307 832.683 -515.036 825.157C-506.025 818.799 -494.861 817.2 -484.502 814.227C-473.588 811.373 -463.267 806.464 -452.079 804.662C-444.008 803.273 -435.773 803.342 -427.62 803.947C-409.983 805.181 -392.101 805.835 -374.996 810.794C-366.112 813.099 -357.466 816.409 -348.392 817.953C-338.974 819.558 -329.447 818.063 -319.973 817.833C-303.231 817.187 -285.91 816.456 -270.515 809.054C-258.093 802.872 -244.517 799.001 -230.68 797.863C-226.549 797.54 -222.454 796.846 -218.545 795.501C-237.108 795.087 -255.737 799.576 -272.351 807.825C-287.14 814.817 -303.794 815.246 -319.818 815.963C-330.099 816.173 -340.521 817.925 -350.696 815.665C-363.001 812.88 -374.965 808.771 -387.308 806.126C-401.76 803.502 -416.471 802.796 -431.101 801.9C-438.059 801.496 -445.079 801.601 -451.976 802.763C-463.164 804.565 -473.565 809.378 -484.455 812.314C-493.551 814.948 -503.12 816.432 -511.591 820.889Z" fill="white"/>
<path d="M-512.285 840.085C-518.536 844.73 -523.453 850.847 -528.079 857.056L-526.634 857.443C-521.959 852.285 -517.713 846.651 -512.176 842.371C-503.497 835.457 -493.107 831.304 -483.099 826.778C-472.628 822.209 -462.476 816.533 -451.201 814.181C-441.733 812.008 -431.962 812.52 -422.35 813.064C-405.307 813.597 -387.965 815.595 -372.16 822.374C-365.802 824.905 -359.742 828.214 -353.189 830.241C-345.805 832.536 -338.01 832.457 -330.362 832.701C-316.403 833.07 -302.432 833.338 -288.459 833.545C-271.545 833.713 -255.088 829.139 -238.309 827.736C-226.61 826.386 -214.813 826.462 -203.076 827.215C-183.736 828.544 -165.073 834.478 -145.785 836.17C-131.789 837.467 -117.551 832.028 -103.846 836.768C-89.7273 839.739 -74.9216 848.115 -60.4969 842.033C-48.1937 837.023 -43.9799 823.149 -40.8003 811.451C-35.7174 792.257 -24.6174 774.118 -25.6542 753.691C-26.2965 743.406 -25.8449 733.023 -23.4927 722.954C-20.1627 709.46 -16.6256 695.811 -16.2644 681.838C-16.7687 666.549 -20.3138 651.498 -25.1443 637.037C-29.5027 624.854 -29.0707 611.682 -28.7411 598.949C-28.1948 585.07 -22.9614 571.936 -21.9053 558.118C-21.2372 550.126 -18.9743 540.334 -25.8431 534.265C-35.478 525.95 -48.8614 524.666 -60.1803 519.662C-67.4785 516.262 -70.4957 508.275 -73.8655 501.549C-79.1829 490.026 -85.8881 478.072 -84.5438 464.919C-83.9248 453.181 -76.8072 443.396 -72.1315 433.016C-68.0829 424.079 -64.153 415.08 -60.6606 405.918C-57.9489 398.94 -57.2904 390.479 -61.4988 383.964C-66.6014 378.654 -74.5866 378.771 -81.3806 378.034C-89.4839 377.639 -97.4885 376.201 -105.56 375.574C-100.235 379.829 -92.8895 378.397 -86.5656 379.429C-78.7243 380.522 -69.6648 379.594 -63.1926 384.954C-59.4223 390.299 -60.2136 397.46 -62.0688 403.374C-66.8481 417.563 -72.9439 431.279 -79.9578 444.493C-84.9015 453.853 -87.8732 464.719 -85.9253 475.293C-84.1949 484.154 -80.1769 492.333 -76.419 500.473C-72.5219 508.093 -69.3636 517.517 -60.9366 521.25C-51.0438 525.18 -40.5306 527.636 -31.0209 532.546C-26.6074 534.873 -23.3169 539.426 -23.0012 544.477C-22.1095 564.941 -30.8181 584.367 -30.8234 604.756C-30.7307 615.24 -30.903 625.983 -27.4238 636.005C-22.6665 650.01 -19.0448 664.494 -18.1516 679.285C-17.5389 689.231 -20.3348 698.88 -21.9025 708.603C-23.484 718.096 -27.1689 727.191 -27.612 736.869C-28.383 748.219 -26.2054 759.788 -29.0382 770.977C-32.6421 785.662 -39.9773 799.121 -43.5532 813.813C-45.3805 821.194 -47.5095 828.915 -53.026 834.464C-58.9173 841.132 -68.4054 843.436 -76.9714 842.073C-89.2432 840.064 -100.837 835.077 -113.102 833.099C-123.557 832.164 -133.912 835.289 -144.394 834.346C-162.885 832.988 -180.783 827.455 -199.228 825.702C-213.288 824.418 -227.476 824.454 -241.484 826.178C-252.929 827.31 -264.146 829.947 -275.593 831.034C-286.955 832.308 -298.407 831.391 -309.807 831.346C-320.688 831.049 -331.576 830.946 -342.455 830.303C-357.956 829.46 -370.486 818.819 -385.368 815.554C-396.258 813.268 -407.345 811.832 -418.47 811.379C-429.35 810.797 -440.377 809.979 -451.124 812.321C-462.861 814.488 -473.266 820.609 -484.116 825.301C-493.845 829.511 -503.725 833.726 -512.285 840.085Z" fill="white"/>
<path d="M-481.407 836.064C-493.822 843.061 -506.265 850.276 -516.702 860.105L-514.303 860.747C-507.524 853.911 -499.468 848.59 -491.048 844.045C-480.185 838.182 -470.102 830.907 -458.891 825.71C-444.946 819.454 -429.281 820.19 -414.382 820.812C-403.45 821.198 -392.718 823.682 -382.336 827.021C-373.575 829.955 -365.952 835.399 -357.364 838.753C-348.88 842.441 -339.493 842.759 -330.386 843.168C-313.116 843.582 -295.905 845.003 -278.676 846.189C-263.302 847.449 -247.831 846.162 -232.502 848.208C-211.52 850.76 -190.3 851.751 -169.545 856.048C-159.458 857.682 -149.745 860.992 -139.67 862.729C-129.824 864.419 -120.418 867.977 -111.287 871.944C-103.378 875.478 -95.6251 880.098 -90.3902 887.159C-85.3196 893.935 -80.6001 901.46 -73.0027 905.708C-61.3309 912.537 -47.1698 910.975 -34.8176 915.714C-24.3811 920.196 -19.8989 931.524 -15.1315 941.003C-9.91083 953.447 -1.82895 964.416 7.13278 974.402C12.8794 980.787 20.24 985.694 28.5061 988.12C42.4074 992.296 55.1481 1001.53 61.2889 1014.98L62.6917 1015.35C58.6963 1003.16 48.1318 994.612 36.8881 989.327C28.0395 985.316 17.9105 983.053 10.9995 975.739C2.62906 967.025 -4.74442 957.285 -10.3286 946.534C-15.8481 936.327 -19.4986 924.363 -29.0123 916.998C-42.103 907.833 -59.9996 912.563 -73.1258 903.418C-83.6979 896.973 -87.7205 884.097 -97.9376 877.282C-106.513 871.297 -116.476 867.8 -126.162 864.106C-135.757 860.467 -146.11 859.995 -155.947 857.374C-180.375 850.287 -205.947 849.544 -231.046 846.476C-244.372 844.696 -257.828 845.199 -271.226 844.814C-292.06 843.505 -312.89 841.506 -333.787 841.218C-342.021 841.028 -350.093 839.001 -357.844 836.337C-366.19 833.424 -373.276 827.718 -381.865 825.431C-392.041 822.614 -402.259 819.335 -412.897 819.028C-425.572 818.581 -438.525 817.653 -450.924 821.058C-462.098 823.707 -471.506 830.591 -481.407 836.064Z" fill="white"/>
<path d="M-253.133 -41.3967C-262.948 -19.6934 -275.414 1.29952 -280.128 24.8963C-281.918 32.1366 -279.456 40.4559 -273.295 44.8455C-263.819 49.4912 -253.19 45.7332 -243.574 43.5696C-233.273 41.3186 -224.94 34.4621 -215.228 30.7593C-212.166 29.4881 -208.749 29.3051 -205.57 30.2922C-204.025 39.6751 -209.285 48.1975 -211.99 56.8329C-214.363 64.7897 -216.967 72.7146 -218.652 80.8556C-217.984 81.11 -216.629 81.6085 -215.957 81.8488C-212.538 72.908 -210.749 63.4254 -207.289 54.4959C-204.211 46.0959 -200.282 37.3222 -201.8 28.1725C-204.829 26.2923 -208.543 25.1164 -212.119 25.7234C-223.707 28.4571 -232.927 36.9419 -244.478 39.7609C-250.493 41.2792 -256.588 42.9267 -262.831 42.9393C-267.648 42.7922 -273.351 41.2942 -275.431 36.4329C-279.232 28.9587 -275.423 20.6344 -273.005 13.3516C-267.155 -5.39604 -257.679 -22.6908 -249.304 -40.3706L-253.133 -41.3967Z" fill="white"/>
<path d="M-472.283 839.607C-483.338 847.646 -495.334 854.318 -505.928 862.991L-501.481 864.183C-489.03 855.872 -476.857 847.14 -464.224 839.103C-457.163 834.69 -449.514 830.946 -441.188 829.836C-437.501 828.928 -432.749 829.148 -430.627 825.382C-445.796 823.635 -460.295 831.006 -472.283 839.607Z" fill="white"/>
<path d="M-468.844 848.49C-477.961 853.39 -485.731 860.337 -494.285 866.111L-491.774 866.784C-484.147 860.656 -475.392 855.869 -468.844 848.49Z" fill="white"/>
<path d="M-473.557 860.635C-477.685 862.629 -481.222 865.563 -484.479 868.739L-482.894 869.163C-479.307 866.889 -476.192 863.962 -473.557 860.635Z" fill="white"/>
<path d="M-453.184 851.993C-461.894 857.229 -469.005 864.578 -477.016 870.738L-474.477 871.419C-467.191 864.823 -459.843 858.215 -451.399 853.134C-442.799 847.914 -432.65 845.893 -422.72 845.364C-414.062 844.869 -405.682 847.597 -397.474 849.961C-383.777 853.887 -372.32 863.202 -358.419 866.596C-340.954 871.893 -322.538 868.927 -304.675 871.17C-283.061 872.989 -262.617 880.694 -241.626 885.626C-226.385 888.897 -210.796 890.983 -195.17 890.294C-180.846 889.527 -166.264 890.937 -152.642 895.595C-143.39 898.661 -135.032 905.234 -131.125 914.332C-127.257 923.464 -127.055 933.541 -125.854 943.253C-124.85 951.798 -121.338 959.842 -117.01 967.202L-115.565 967.589C-118.532 959.586 -123.107 952.024 -124.028 943.396C-125.148 933.269 -125.48 922.782 -129.685 913.333C-134.271 902.955 -144.211 895.777 -154.785 892.372C-169.796 888.184 -185.488 887.997 -200.945 888.506C-227.793 889.212 -253.308 879.787 -279.12 873.879C-294.887 869.654 -311.274 868.077 -327.568 868.286C-336.776 868.197 -346.058 867.711 -355.075 865.731C-369.578 862.507 -381.537 852.937 -395.659 848.687C-404.729 845.835 -414.083 842.983 -423.711 843.563C-433.969 844.14 -444.374 846.499 -453.184 851.993Z" fill="white"/>
<path d="M-426.866 837.887C-444.39 838.925 -461.262 847.406 -473.037 860.323C-466.204 857.097 -460.992 851.451 -454.413 847.827C-444.36 842.124 -432.741 839.669 -421.26 839.465C-411.589 839.287 -402.351 842.575 -393.15 845.101C-380.778 848.476 -370.724 857.189 -358.356 860.579C-346.451 864.521 -333.813 864.265 -321.444 864.675C-306.378 865.01 -291.256 866.429 -276.659 870.25C-268.213 872.453 -259.488 873.391 -251.049 875.622C-241.607 878.092 -232.265 881.212 -222.502 882.263C-206.272 884.535 -189.829 883.042 -173.548 884.681C-157.871 886.158 -141.077 889.86 -129.634 901.474C-120.216 911.777 -119.544 926.494 -117.445 939.592C-116.075 950.974 -110.279 961.105 -104.258 970.619L-102.827 971.002C-107.223 961.036 -113.955 951.873 -115.366 940.811C-117.767 926.428 -118.439 910.026 -129.457 899.128C-143.13 886.3 -162.867 883.48 -180.835 882.247C-196.788 881.689 -212.859 882.243 -228.64 879.414C-241.892 877.414 -254.417 872.312 -267.609 870.087C-278.585 868.349 -289.296 865.118 -300.395 864.116C-317.104 862.001 -334.106 863.675 -350.742 860.783C-361.488 858.972 -370.886 853.248 -380.398 848.292C-394.821 841.463 -410.712 836.407 -426.866 837.887Z" fill="white"/>
<path d="M-451.13 837.932C-457.769 839.027 -463.491 843.047 -468.099 847.786C-461.927 845.512 -456.28 842 -451.13 837.932Z" fill="white"/>
<path d="M-457.781 863.372C-462.216 866.006 -466.162 869.343 -470.17 872.573L-467.336 873.332C-463.836 870.312 -460.63 866.988 -457.781 863.372Z" fill="white"/>
<path d="M-442.503 858.256C-450.946 861.878 -457.664 868.264 -464.629 874.058L-460.336 875.208C-454.484 870.817 -449.101 865.653 -442.389 862.545C-433.944 858.578 -424.219 856.625 -415.003 858.763C-409.265 860.014 -403.617 861.663 -398 863.424C-387.271 866.705 -377.978 873.544 -367.058 876.335C-353.932 880.544 -340.029 880.673 -326.386 880.988C-312.593 880.967 -298.729 882.364 -285.382 885.971C-269.968 890.116 -254.541 894.264 -239.165 898.55C-226.423 902.28 -213.056 903.74 -199.806 902.881C-185.909 902.136 -171.044 900.867 -158.238 907.503C-148.92 912.062 -142.041 921.459 -141.473 931.965C-140.943 942.054 -139.317 952.03 -136.944 961.86L-132.413 963.075C-135.435 952.694 -136.785 941.964 -137.648 931.214C-138.485 919.974 -145.433 909.655 -155.515 904.636C-170.609 897.221 -187.862 897.865 -204.178 899.167C-231.11 900.919 -255.834 888.485 -281.435 882.408C-294.026 879.065 -307.034 877.445 -320.046 877.134C-334.005 876.764 -348.126 876.999 -361.831 873.943C-377.24 870.567 -389.943 860.18 -405.321 856.632C-417.377 852.469 -430.865 853.038 -442.503 858.256Z" fill="white"/>
<path d="M-438.085 833.015C-442.4 833.575 -446.473 835.252 -450.247 837.386C-437.467 834.806 -424.448 832.23 -411.352 834.024C-396.275 835.159 -382.395 841.828 -369.399 849.102C-361.073 853.831 -351.828 857.091 -342.215 857.575C-322.65 858.739 -302.898 858.644 -283.573 862.333C-272.62 864.38 -261.601 866.128 -250.679 868.348C-234.128 872.737 -217.102 875.689 -199.949 875.921C-182.816 876.284 -165.601 877.691 -148.942 881.899C-136.274 885.293 -123.531 891.883 -116.602 903.506C-107.329 919.459 -109.538 939.709 -98.91 955.092C-94.1343 962.015 -89.0628 968.731 -84.5906 975.888L-81.9953 976.584C-88.59 965.171 -98.1312 955.496 -102.877 943.074C-107.202 930.373 -107.729 916.462 -113.968 904.392C-119.371 893.976 -129.482 886.767 -140.33 882.867C-161.293 875.414 -183.741 874.35 -205.776 873.818C-218.367 873.62 -230.707 870.855 -243.019 868.489C-257.146 864.764 -271.604 862.665 -285.948 860.086C-300.799 857.431 -315.894 856.757 -330.945 856.366C-341.058 855.838 -351.552 855.555 -360.906 851.242C-370.657 846.839 -379.604 840.785 -389.721 837.186C-405.084 831.339 -421.951 830.431 -438.085 833.015Z" fill="white"/>
<path d="M-427.297 849.54C-438.209 851.04 -449.655 854.534 -457.347 862.872C-452.02 860.612 -447.208 857.357 -441.903 855.121C-430.546 850.61 -417.694 849.615 -406.033 853.567C-388.649 857.202 -374.427 869.214 -357.011 872.676C-336.195 877.08 -314.657 873.461 -293.833 877.897C-280.549 881.066 -266.939 883.132 -254.088 887.915C-240.231 893.043 -225.495 895.396 -210.798 896.264C-198.895 897.015 -186.944 894.891 -175.089 896.547C-164.023 897.948 -152.259 900.452 -143.984 908.509C-135.558 916.289 -134.028 928.422 -133.526 939.286C-133.249 948.073 -130.75 956.643 -126.956 964.537L-125.525 964.92C-128.358 956.246 -131.676 947.531 -131.755 938.286C-132.116 926.391 -134.672 913.035 -144.681 905.387C-158.156 894.569 -176.354 893.635 -192.904 894.182C-212.996 895.66 -233.383 892.906 -252.341 886.111C-270.246 880.154 -288.791 876.194 -307.559 874.189C-323.114 872.535 -338.893 874.356 -354.309 871.233C-370.264 868.885 -383.304 858.408 -398.572 854.001C-407.877 851.357 -417.481 848.032 -427.297 849.54Z" fill="white"/>
<path d="M-246.873 94.3766C-248.09 96.1122 -247.64 97.0152 -245.524 97.0856C-244.307 95.35 -244.757 94.447 -246.873 94.3766Z" fill="white"/>
<path d="M-348.275 521.968C-352.461 524.683 -357.833 523.41 -362.245 525.568C-352.757 528.035 -341.667 522.444 -338.596 513.004C-342.202 515.574 -344.639 519.451 -348.275 521.968Z" fill="white"/>
<path d="M-415.629 861.379C-430.714 858.195 -446.117 865.459 -456.45 876.249L-455.062 876.621C-447.734 871.271 -440.331 865.414 -431.265 863.45C-421.913 860.869 -412.325 863.694 -403.367 866.455C-393.285 869.398 -384.302 875.431 -373.845 877.255C-386.971 870.186 -401.034 864.537 -415.629 861.379Z" fill="white"/>
<path d="M-245.096 101.549C-245.783 107.761 -245.337 114.005 -245.872 120.212C-246.431 128.64 -247.106 137.443 -244.108 145.5C-241.334 151.645 -235.053 154.968 -229.612 158.398C-222.313 162.415 -217.616 170.807 -218.413 179.17C-218.872 191.432 -219.682 205.285 -211.498 215.424C-199.776 226.721 -182.457 225.944 -167.374 226.103C-164.15 229.781 -161.761 234.951 -163.381 239.874C-165.649 252.268 -173.845 262.261 -178.214 273.852C-182.989 285.559 -184.55 299.858 -177.685 311.102C-172.504 319.879 -166.027 330.328 -154.713 331.087C-143.895 331.563 -131.348 329.794 -122.413 337.244C-113.657 345.64 -118.852 359.416 -112.012 368.623C-112.947 362.293 -114.338 356.036 -114.976 349.665C-115.534 343.722 -118.374 337.995 -122.888 334.077C-130.908 330.453 -139.901 328.721 -148.709 329.385C-155.067 329.939 -162.043 328.702 -166.385 323.641C-174.381 314.877 -181.437 303.611 -180.395 291.25C-179.825 272.066 -164.699 257.474 -161.379 239.026C-160.149 233.818 -163.072 228.791 -165.773 224.561C-178.551 223.093 -192.642 225.743 -204.201 218.493C-211.88 215.277 -215.003 206.9 -216.282 199.274C-217.273 191.469 -216.266 183.613 -216.587 175.777C-216.63 170.439 -219.322 165.504 -222.646 161.468C-227.87 156.05 -235.567 153.747 -240.496 147.957C-243.081 144.977 -243.61 140.893 -244.148 137.122C-245.493 127.101 -243.138 117.077 -243.576 107.043C-243.518 105.087 -244.298 103.283 -245.096 101.549Z" fill="white"/>
<path d="M-421.217 866.578C-432.234 865.778 -442.271 871.305 -450.755 877.775L-448.188 878.463C-439.232 870.57 -426.603 866.309 -414.817 869.346C-396.702 872.891 -380.866 883.65 -362.421 886.019C-340.977 890.441 -318.788 886.861 -297.397 891.645C-282.502 893.965 -268.511 899.716 -254.08 903.823C-241.165 909.21 -227.227 911.455 -213.334 912.409C-200.159 913.29 -186.833 909.232 -173.826 912.762C-164.496 914.585 -155.694 921.127 -153.146 930.583C-150.696 939.847 -150.047 949.486 -148.11 958.868L-145.389 959.598C-147.421 952.928 -148.491 946.035 -149.508 939.172C-150.631 931.241 -152.715 922.632 -159.481 917.584C-170.605 908.99 -185.645 908.617 -199.036 910.22C-223.051 912.815 -246.202 904.384 -268.75 897.409C-281.509 891.718 -295.452 889.999 -309.146 887.91C-323.734 886.017 -338.547 887.601 -353.125 885.501C-362.523 884.156 -372.078 882.95 -380.94 879.327C-393.945 873.991 -407.084 868.093 -421.217 866.578Z" fill="white"/>
<path d="M-231.494 84.1714C-233.376 91.4771 -233.171 99.0714 -234.259 106.5C-235.223 115.707 -236.516 125.473 -233.106 134.347C-228.335 143.195 -217.437 144.384 -209.57 149.141C-203.274 153.251 -203.314 161.426 -203.495 168.104C-204.029 178.962 -205.359 190.659 -200.096 200.647C-194.645 210.715 -181.903 214.731 -171.165 212.026C-162.7 210.005 -152.729 208.313 -145.166 213.755C-142.338 217.959 -144.134 223.708 -145.349 228.243C-150.627 240.869 -156.199 253.416 -163.23 265.181C-167.753 275.496 -172.279 288.007 -166.823 298.844C-164.041 304.51 -159.488 311.479 -152.294 310.893C-144.969 310.825 -138.128 307.797 -131.109 306.066C-123.537 303.957 -114.955 300.598 -107.533 305.055C-101.055 312.358 -100.038 322.533 -98.4371 331.765C-97.4053 337.173 -97.9134 343.222 -94.3985 347.835C-94.6701 342.059 -95.9691 336.414 -96.8021 330.713C-98.1072 322.734 -98.9364 314.326 -103.536 307.42C-106.314 302.131 -112.939 299.754 -118.612 301.063C-128.421 302.934 -137.838 306.49 -147.588 308.648C-151.903 309.599 -156.961 308.951 -160.114 305.623C-166.1 299.234 -169.136 289.858 -166.9 281.232C-164.704 267.931 -155.483 257.535 -150.82 245.181C-147.19 235.785 -140.401 226.499 -142.269 215.961C-143.487 209.901 -150.261 208.191 -155.592 208.223C-163.879 207.673 -171.737 211.3 -179.971 211.111C-189.549 210.44 -198.778 203.528 -200.77 193.905C-204.24 181.042 -199.716 167.582 -202.897 154.706C-207.904 141.913 -226.713 144.999 -231.81 132.317C-236.642 116.515 -229.204 100.089 -231.494 84.1714Z" fill="white"/>
<path d="M-419.194 824.293C-423.466 824.186 -428.669 823.74 -431.585 827.609C-425.999 828.76 -420.292 828.558 -414.632 828.645C-404.135 828.749 -393.745 831.217 -384.046 835.14C-373.671 839.29 -364.729 846.546 -353.906 849.642C-343.366 852.782 -332.273 852.233 -321.422 852.643C-289.71 854.428 -258.287 859.372 -226.926 864.208C-209.933 866.61 -192.744 867.213 -175.708 869.174C-153.721 873.305 -129.448 875.866 -112.106 891.498C-101.913 900.143 -100.726 914.231 -95.6671 925.819C-91.6629 936.463 -82.9937 944.173 -75.0213 951.847C-67.0407 959.659 -57.3825 965.362 -48.7214 972.317C-40.595 978.182 -33.2885 985.03 -25.7983 991.642L-17.1289 993.965C-23.0916 988.274 -29.5285 983.118 -35.7106 977.684C-46.7861 967.9 -59.6507 960.36 -70.5893 950.401C-78.7557 942.946 -87.6255 935.423 -91.903 924.901C-96.8314 913.499 -97.9536 899.955 -107.191 890.829C-121.163 876.762 -141.123 870.676 -160.272 867.848C-178.09 863.585 -196.522 863.973 -214.637 861.888C-237.653 858.565 -260.66 855.094 -283.698 851.856C-302.154 849.303 -320.821 849.222 -339.369 847.909C-354.517 847.206 -367.455 838.818 -380.798 832.67C-392.909 827.423 -406.08 825.068 -419.194 824.293Z" fill="white"/>
<path d="M-419.906 872.738C-428.514 871.982 -436.541 875.79 -443.993 879.587L-441.314 880.305C-434.707 877.139 -427.65 873.974 -420.145 874.585C-402.841 876.724 -387.265 885.367 -370.265 888.808C-361.635 890.775 -352.788 891.369 -344.111 893.047C-354.005 893.496 -363.745 890.962 -373.452 889.369C-387.748 886.833 -401.146 880.835 -415.45 878.386C-422.429 877.103 -429.57 878.561 -435.843 881.771L-430.148 883.297C-425.593 882.29 -420.928 881.042 -416.233 881.924C-407.272 883.497 -398.319 885.49 -389.932 889.091C-383.62 891.851 -376.384 892.12 -370.437 895.79C-374.968 895.027 -379.379 893.755 -383.865 892.824C-384.05 895.588 -379.979 894.873 -378.245 895.865C-371.736 897.383 -365.064 898.072 -358.45 899.032C-340.384 901.751 -321.684 899.463 -304.029 905.006C-288.265 908.403 -274.12 916.722 -258.432 920.234C-239.12 923.407 -219.793 928.601 -200.058 926.996C-191.726 926.37 -182.581 926.638 -175.507 931.664C-168.359 937.025 -167.432 946.528 -163.234 953.868C-164.259 943.496 -168.875 931.936 -179.052 927.554C-188.943 923.113 -199.962 925.743 -210.385 925.418C-227.441 924.655 -244.191 921.01 -260.851 917.479C-274.087 914.353 -286.13 907.56 -299.402 904.516C-310.612 900.955 -322.269 899.457 -333.917 898.262C-309.822 896.773 -286.482 904.892 -264.065 912.75C-243.632 918.586 -222.67 925.196 -201.133 923.097C-190.778 922.215 -178.696 921.344 -170.357 928.77C-163.189 935.912 -162.431 946.604 -159.529 955.809L-156.317 956.669C-157.471 946.052 -160.145 935.043 -166.98 926.605C-174.643 919.179 -186.193 918.011 -196.37 918.79C-224.5 921.591 -252.49 913.88 -278.317 903.318C-291.472 898.544 -305.248 895.47 -319.242 894.67C-327.208 893.875 -335.383 894.814 -343.189 892.692C-326.885 893.344 -310.248 892.64 -294.371 897.075C-282.603 900.289 -270.65 903.04 -259.298 907.587C-244.262 912.744 -228.689 916.857 -212.725 917.372C-200.706 918.305 -188.504 914.291 -176.68 917.971C-169.364 919.285 -162.746 923.932 -159.734 930.819C-156.157 939.241 -155.201 948.466 -153.581 957.402L-151.014 958.09C-154.991 945.829 -153.939 930.791 -164.386 921.581C-174.218 913.665 -187.855 913.833 -199.772 915.215C-217.538 916.594 -235.502 913.662 -252.367 908.09C-263.31 904.209 -274.323 900.476 -285.367 896.915C-300.356 893.32 -315.706 890.847 -331.171 890.932C-342.112 891.085 -353.034 890.04 -363.798 888.073C-383.277 885.969 -400.447 874.972 -419.906 872.738ZM-346.15 897.121C-344.95 895.953 -341.497 896.983 -342.394 898.925C-343.611 900.044 -347.057 899.045 -346.15 897.121ZM-338.838 897.44C-336.847 896.574 -336.012 897.159 -336.332 899.195C-338.319 900.047 -339.155 899.462 -338.838 897.44Z" fill="white"/>
<path d="M-336.531 500.586C-336.805 503.627 -338.533 507.438 -336.439 510.061C-336.39 507.184 -332.244 501.418 -336.531 500.586Z" fill="white"/>
<path d="M-272.002 270.195C-273.496 271.676 -271.511 274.871 -269.54 274.361C-268.049 272.894 -270.045 269.681 -272.002 270.195Z" fill="white"/>
<path d="M-219.558 83.171C-223.306 93.4532 -224.826 104.738 -223.338 115.626C-222.272 123.992 -214.172 129.564 -206.299 130.65C-199.24 132.135 -189.839 131.675 -186.084 139.152C-183.444 150.679 -189.087 161.973 -190.327 173.333C-191.774 181.764 -189.775 190.802 -184.383 197.499C-181.365 200.715 -176.838 202.394 -172.457 201.868C-159.919 200.638 -147.683 196.889 -135.026 196.563C-131.922 196.537 -128.677 196.549 -125.764 197.796C-123.468 201.346 -122.703 205.899 -124.272 209.903C-129.688 225.065 -138.694 238.588 -145.362 253.205C-148.269 259.679 -152.079 265.761 -154.245 272.554C-156.051 278.059 -155.022 284.264 -152.208 289.247C-147.878 291.099 -142.87 290.982 -138.481 289.419C-126.897 285.465 -115.88 278.575 -103.328 278.417C-98.3034 278.184 -94.9243 282.911 -93.2125 287.072C-87.8794 301.397 -89.8929 317.441 -83.6679 331.524C-80.7604 337.675 -74.1003 340.483 -68.2436 343.091C-61.46 345.887 -54.2504 349.113 -46.7378 347.785C-41.3987 347.274 -35.0169 345.117 -30.685 349.543C-25.9591 354.632 -25.0817 362.692 -27.3576 369.11C-31.9146 381.628 -35.4638 394.536 -41.3963 406.52C-47.1725 417.809 -48.202 430.685 -49.2206 443.128C-49.9264 450.027 -47.9665 457.414 -42.4709 461.986C-36.6838 466.818 -31.0297 471.809 -25.9818 477.435C-18.5229 485.679 -6.65112 487.385 1.26993 494.97C6.54322 499.98 9.33645 506.838 13.336 512.785C18.6747 521.198 26.8995 527.706 30.4149 537.255C34.9909 548.459 33.7348 560.778 35.028 572.561C35.6705 579.309 38.1941 585.659 40.5888 591.928C45.8383 605.78 46.1577 620.748 47.6893 635.289C48.913 646.602 47.7611 657.971 48.2091 669.317C48.5157 679.452 48.5912 690.337 54.442 699.083C60.475 708.103 69.1558 714.929 75.6102 723.61C82.5453 731.789 87.6831 741.231 93.8016 749.989C100.678 759.957 113.64 763.431 120.072 773.822C130.579 789.94 127.551 811.34 139.22 826.987C144.018 834.277 154.325 837.671 162.195 833.384C170.276 828.868 176.899 821.658 186.062 819.163C192.951 816.795 200.418 818.781 206.461 822.432C214.703 827.138 222.29 833.445 231.747 835.633C245.395 838.567 259.223 843.522 273.371 841.052C286.561 839.41 297.104 829.188 302.45 817.483C307.715 804.959 311.359 791.866 315.174 778.863C317.08 772.255 320.952 766.22 326.269 761.866C328.684 759.248 332.846 761.281 334.69 763.656C339.973 770.369 341.616 778.995 343.245 787.167C346.468 803.365 351.011 819.404 358.017 834.389C361.562 841.358 365.885 848.792 373.315 852.152C381.565 855.927 391.519 956.335 396.976 949.49C406.446 937.717 411.296 922.869 421.448 911.579C430.514 901.368 441.593 893.126 450.098 882.373L452.028 875.17C445.211 881.756 439.192 889.126 432.126 895.465C425.252 901.704 418.538 908.242 413.062 915.773C405.742 925.865 401.885 938.24 393.36 947.498C389.007 952.185 382.08 851.536 375.711 849.212C369.064 846.243 365.345 839.528 362.022 833.415C353.904 817.305 349.788 799.559 346.262 781.971C344.462 774.265 342.65 765.879 336.758 760.147C333.112 757.199 326.879 754.761 323.256 759.027C310.224 770.403 309.743 788.919 303.876 804.081C299.059 816.334 292.848 830.2 279.705 835.316C264.235 840.305 247.847 835.869 232.628 832.122C219.869 829.124 211.035 817.819 198.14 815.161C188.616 812.549 178.862 816.857 171.246 822.386C165.917 825.999 160.859 831.13 154.04 831.44C148.22 831.671 143.717 826.928 140.881 822.361C134.845 811.895 133.22 799.722 130.362 788.166C127.555 777.377 121.813 766.764 112.323 760.489C106.596 756.668 100.648 752.831 96.6807 747.043C89.9422 737.458 84.085 727.221 76.3763 718.338C69.9812 710.109 61.3364 703.654 56.4435 694.307C52.2056 686.836 52.7476 677.967 52.11 669.685C52.0829 646.443 52.205 622.926 47.0831 600.124C44.5625 589.05 38.5574 578.804 38.3492 567.236C38.0963 556.845 38.4483 546.104 34.3344 536.319C31.6392 528.253 25.5956 522.135 20.2213 515.819C14.3125 509.029 11.4126 500.156 5.24339 493.552C-0.681108 487.269 -8.87779 484.08 -16.1963 479.801C-23.1504 475.846 -27.7954 469.109 -33.9182 464.128C-38.3175 460.346 -43.98 456.676 -44.743 450.377C-45.6981 441.709 -44.4385 432.912 -42.8594 424.382C-40.6884 412.744 -34.4861 402.503 -30.9208 391.329C-28.0764 382.566 -23.9312 374.166 -22.5458 365.012C-21.4892 356.13 -25.2238 345.378 -34.5485 342.639C-42.6289 341.933 -50.8816 346.584 -58.7615 342.998C-66.1151 339.749 -75.0008 337.503 -79.5965 330.358C-85.9703 317.559 -84.05 302.649 -88.3805 289.239C-90.0542 283.253 -93.5999 276.509 -100.181 275.092C-111.995 273.281 -123.073 278.935 -133.66 283.322C-138.646 285.206 -144.311 288.504 -149.574 285.589C-152.331 279.944 -150.139 273.504 -148.136 267.991C-139.989 248.414 -127.927 230.669 -120.671 210.718C-118.37 205.104 -120.219 198.875 -123.055 193.857C-139.816 189.411 -156.736 197.006 -173.513 197.672C-181.447 198.27 -185.409 190.106 -186.518 183.473C-188.739 168.417 -180.006 154.173 -181.817 139.106C-183.702 132.055 -191.183 128.666 -197.883 127.969C-204.915 126.1 -214.56 126.074 -218.235 118.633C-222.031 107.323 -218.577 95.277 -216.725 83.9303C-217.426 83.7424 -218.857 83.359 -219.558 83.171Z" fill="white"/>
<path d="M-387.804 724.987C-389.103 725.738 -389.275 729.243 -387.061 728.106C-384.162 727.333 -384.938 721.813 -387.804 724.987Z" fill="white"/>
<path d="M-266.076 278.66C-264.935 282.818 -262.103 286.165 -258.65 288.656C-259.948 284.576 -262.68 281.195 -266.076 278.66Z" fill="white"/>
<path d="M-379.245 715.378C-380.625 716.151 -380.681 719.673 -378.451 718.419C-375.538 717.59 -376.407 712.195 -379.245 715.378Z" fill="white"/>
<path d="M-394.838 889.838C-402.961 886.879 -411.625 884.648 -420.314 885.932L-413.272 887.819C-406.968 888.198 -400.86 889.7 -394.747 891.127L-394.838 889.838Z" fill="white"/>
<path d="M-255.397 292.507C-256.534 294.279 -256.034 295.165 -253.917 295.176C-252.777 293.389 -253.276 292.503 -255.397 292.507Z" fill="white"/>
<path d="M-365.508 702.324C-367.341 704.226 -363.997 705.83 -362.996 703.78C-361.142 701.854 -364.49 700.265 -365.508 702.324Z" fill="white"/>
<path d="M-250.313 300.355C-248.903 306.707 -246.317 312.712 -244.938 319.071C-241.427 334.247 -236.305 348.967 -232.238 363.977C-228.843 376.053 -223.651 387.481 -219.058 399.125C-215.801 407.507 -211.021 415.258 -208.559 423.969C-206.092 432.606 -203.272 441.217 -198.734 449.024C-195.331 454.841 -192.242 461.327 -192.854 468.266C-193.729 478.942 -200.154 487.935 -204.853 497.224C-211.186 511.599 -209.013 527.787 -212.721 542.805C-214.792 553.566 -220.929 562.832 -227.068 571.66C-230.878 577.125 -235.909 581.646 -239.43 587.324C-245.827 598.687 -241.02 612.841 -247.792 624.089C-252.235 631.581 -255.215 639.782 -259.26 647.471C-266.653 658.341 -280.485 661.873 -292.794 663.541C-301.356 664.798 -309.906 666.465 -318.247 668.805C-327.552 672.391 -335.639 678.501 -343.338 684.729C-348.003 688.506 -353.262 691.746 -356.709 696.812C-346.156 690.761 -337.92 681.456 -327.353 675.409C-311.764 665.094 -292.014 667.587 -275.013 661.203C-266.416 658.525 -258.696 652.437 -255.359 643.911C-250.819 631.961 -242.133 621.316 -241.696 608.07C-241.502 600.222 -241.32 591.573 -235.859 585.331C-226.202 574.375 -217.177 562.407 -212.184 548.546C-208.963 536.242 -208.323 523.472 -206.917 510.877C-205.746 495.285 -191.535 484.164 -191.01 468.399C-190.237 459.231 -195.279 451.169 -199.467 443.455C-204.684 433.916 -206.078 422.903 -210.625 413.107C-217.808 398.557 -223.616 383.367 -229.106 368.112C-233.887 351.165 -239.475 334.424 -243.509 317.271C-245.03 311.386 -246.166 305.078 -250.313 300.355Z" fill="white"/>
<path d="M-301.347 551.923C-308.984 562.412 -317.532 572.597 -322.267 584.826C-320.147 583.423 -318.851 581.167 -317.55 579.062C-308.858 563.288 -297.062 549.565 -285.804 535.607C-279.26 527.85 -271.334 520.659 -268.226 510.687C-265.683 502.038 -265.963 492.814 -267.313 483.994C-267.999 479.597 -268.524 475.047 -270.694 471.08C-271.222 477.65 -268.805 483.896 -268.303 490.381C-267.075 502.688 -270.224 515.9 -278.895 525.028C-286.907 533.551 -293.911 542.915 -301.347 551.923Z" fill="white"/>
<path d="M-391.327 891.156C-391.656 893.28 -386.503 894.645 -385.716 892.659C-386.947 891.08 -389.472 890.404 -391.327 891.156Z" fill="white"/>
<path d="M-211.114 253.719C-208.887 257.808 -204.885 261.333 -204.985 266.362C-204.908 273.877 -207.995 280.965 -208.622 288.412C-210.007 297.957 -208.307 307.547 -206.119 316.832C-202.651 334.359 -191.789 349.263 -180.214 362.402C-174.691 368.216 -168.37 373.356 -164.005 380.183C-159.881 385.667 -158.339 392.596 -154.109 398.019C-156.962 383.47 -167.295 371.928 -177.9 362.239C-188.285 350.382 -198.53 337.555 -202.894 322.135C-206.108 310.394 -208.741 298.056 -206.251 285.902C-205.31 277.17 -200.885 267.897 -204.943 259.361C-205.919 256.496 -208.423 254.787 -211.114 253.719Z" fill="white"/>
<path d="M-369.078 878.487L-369.127 879.678C-356.437 882.822 -343.353 884.718 -330.245 884.393C-314.5 884.157 -298.833 886.399 -283.453 889.602C-273.42 891.719 -264.169 896.304 -254.282 898.909C-241.379 902.155 -228.638 906.788 -215.186 907.142C-202.178 908.37 -189.184 905.156 -176.18 906.789C-167.65 907.781 -159.184 911.313 -153.182 917.586C-148.51 922.54 -146.731 929.367 -146.001 935.958C-145.08 944.136 -143.929 952.299 -142.429 960.391L-139.82 961.09C-143.294 950.152 -143.114 938.538 -145.736 927.452C-148.097 916.902 -157.741 909.743 -167.626 906.794C-178.691 903.257 -190.395 904.515 -201.736 905.374C-222.961 906.699 -243.844 901.028 -263.561 893.698C-287.132 885.547 -312.174 881.591 -337.127 882.413C-347.97 882.924 -358.347 879.12 -369.078 878.487Z" fill="white"/>
<path d="M-187.829 238.921C-185.798 241.723 -183.202 244.043 -180.885 246.62C-182.159 259.567 -190.152 270.653 -193.246 283.156C-196.432 293.529 -195.392 304.688 -192.358 314.966C-190.356 321.582 -185.883 326.994 -181.882 332.49C-177.651 338.078 -173.567 344.048 -167.66 348.039C-162.85 351.299 -157.016 352.531 -152.166 355.697C-144.779 361.122 -139.796 369.124 -136.253 377.447C-133.502 383.285 -131.102 389.872 -125.659 393.799C-117.057 399.068 -106.733 398.358 -97.093 398.293C-91.2653 398.876 -82.1337 400.541 -82.2078 408C-81.6115 420.364 -88.3831 431.551 -94.4872 441.819C-102.726 455.397 -110.545 470.156 -111.335 486.347C-111.671 495.737 -107.269 504.336 -101.696 511.593C-94.8159 520.313 -92.4516 531.466 -86.9836 540.967C-78.9891 553.552 -63.4307 558.895 -55.5009 571.553C-49.6665 582.718 -52.7547 595.87 -55.8396 607.383C-58.0245 616.94 -62.9614 625.489 -66.1058 634.699C-69.3223 644.627 -66.8348 655.376 -62.2539 664.428C-58.1683 672.355 -54.5376 681.138 -55.7499 690.264C-59.0467 710.087 -69.0402 727.799 -75.351 746.695C-78.8073 756.844 -84.3276 767.795 -95.0585 771.706C-106.625 775.258 -119.178 772.166 -130.753 775.806C-140.039 778.645 -147.4 785.521 -156.617 788.499C-169.137 792.969 -182.6 791.815 -195.626 792.734C-202.14 793.306 -208.967 792.695 -215.124 795.304C-208.283 796.144 -201.482 794.611 -194.652 794.484C-181.259 793.769 -167.328 794.748 -154.619 789.681C-146.855 786.856 -140.185 781.826 -132.69 778.432C-120.1 773.363 -105.89 777.622 -93.1753 773.039C-82.8988 768.915 -77.7315 758.216 -74.0494 748.458C-69.0856 734.815 -63.6319 721.363 -58.0838 707.952C-54.3971 699.58 -53.0216 690.182 -54.139 681.109C-55.6508 669.132 -64.9566 659.701 -65.5765 647.481C-66.6811 639.315 -62.6365 631.851 -59.9175 624.454C-55.716 614.609 -53.0303 604.193 -50.8759 593.74C-49.6413 584.756 -50.0824 574.45 -56.305 567.26C-63.0998 559.119 -72.328 553.607 -80.1562 546.573C-87.2906 539.756 -89.8392 529.908 -93.9229 521.245C-98.0833 511.914 -105.921 504.411 -108.644 494.427C-111.761 477.836 -103.855 461.686 -95.7922 447.699C-88.3799 435.299 -79.5294 422.02 -80.5307 406.959C-80.2986 401.604 -85.571 399.228 -89.9037 397.947C-98.4531 394.783 -107.701 397.873 -116.392 395.575C-121.056 394.521 -125.984 392.598 -128.52 388.262C-134.882 378.446 -137.781 366.428 -146.451 358.161C-152.951 350.49 -164.302 350.263 -171.015 342.881C-176.949 336.581 -182.011 329.491 -186.643 322.201C-192.316 313.578 -193.635 302.901 -193.231 292.807C-192.447 275.967 -179.927 262.347 -179.137 245.539C-181.248 242.475 -184.544 240.524 -187.829 238.921Z" fill="white"/>
<path d="M-298.252 912.288C-316.494 903.382 -337.257 902.649 -357.187 902.847L-348.602 905.147C-335.041 904.928 -321.227 905.56 -308.293 910.034C-299.897 912.705 -292.468 917.524 -285.054 922.175L-273.144 925.366C-281.565 921.108 -290.049 916.969 -298.252 912.288Z" fill="white"/>
<path d="M-306.152 916.521C-314.636 909.914 -325.577 907.539 -336.145 908.485L-325.132 911.435C-321.727 909.218 -317.495 910.427 -315.621 913.984L-306.152 916.521Z" fill="white"/>
<path d="M-153.915 398.642C-152.495 406.246 -147.119 412.894 -140.559 416.803C-132.722 421.672 -122.927 418.337 -114.653 421.743C-111.991 423.48 -110.551 426.635 -109.512 429.546C-109.372 433.512 -111.291 437.196 -112.831 440.756C-120.329 456.504 -129.584 471.631 -134.02 488.635C-136.475 497.067 -139.389 505.812 -137.603 514.687C-136.112 522.31 -135.046 530.677 -129.745 536.762C-132.402 526.87 -136.923 517.202 -136.258 506.696C-134.308 488.588 -126.274 471.961 -118.351 455.8C-114.139 447.433 -108.796 439.219 -107.736 429.706C-108.386 425.514 -110.726 420.553 -115.309 419.701C-123.6 416.863 -133.279 419.657 -140.804 414.465C-146.947 410.848 -149.42 403.805 -153.915 398.642Z" fill="white"/>
<path d="M-213.001 931.143C-232.746 929.358 -252.345 925.461 -272.232 925.61L-263.114 928.053C-245.518 927.983 -228.281 932.165 -210.763 933.112C-201.207 933.475 -190.99 931.984 -182.224 936.756C-176.177 939.941 -173.855 946.763 -171.313 952.651L-168.914 953.294C-171.7 946.016 -174.961 938.04 -182.399 934.377C-191.906 929.737 -202.84 932.105 -213.001 931.143Z" fill="white"/>
<path d="M-110.949 371.782C-112.048 373.639 -109.058 376.005 -107.269 375.221C-106.234 373.376 -109.185 371.036 -110.949 371.782Z" fill="white"/>
<path d="M-94.2631 350.024C-91.9778 354.232 -88.6162 358.128 -83.6985 359.19C-86.3191 355.222 -90.2492 352.438 -94.2631 350.024Z" fill="white"/>
<path d="M-207.357 936.899C-218.076 936.781 -228.554 933.521 -239.308 934.432L-230.877 936.691C-221.885 937.25 -212.958 938.724 -203.938 938.898C-198.798 939.072 -193.382 939.003 -188.681 941.436C-184.376 943.493 -181.408 947.343 -178.257 950.791L-176.77 951.189C-179.086 947.318 -181.622 943.373 -185.605 941.012C-191.933 936.517 -200.022 937.299 -207.357 936.899Z" fill="white"/>
<path d="M-65.0047 361.024C-70.4804 360.249 -76.4566 357.413 -81.8468 359.686C-70.8925 361.899 -59.8319 363.659 -48.9426 366.17C-46.7008 367.343 -44.7675 369.049 -43.2304 371.056C-42.396 393.642 -56.0266 413.089 -60.7497 434.531C-62.5355 442.374 -65.8665 449.924 -66.4832 458.005C-66.1945 466.916 -63.5304 475.771 -59.2415 483.557C-56.3751 489.02 -50.0484 490.715 -44.8247 493.048C-39.3751 495.155 -35.4859 499.718 -30.5296 502.657C-24.1603 506.605 -16.226 507.407 -10.3471 512.233C-2.2982 518.724 2.02448 529.076 2.5733 539.261C3.45454 554.545 -1.33146 569.545 -0.643862 584.823C0.258932 600.083 8.81285 613.33 16.2353 626.199C21.7027 635.534 21.8335 646.886 19.9692 657.266C16.4124 680.977 21.5961 705.736 34.2003 726.088C38.2808 733.698 44.9463 739.908 47.2218 748.418C50.7605 760.126 49.4678 772.525 47.9999 784.457C47.4123 789.792 46.1014 795.189 46.9751 800.57C49.3593 791.728 50.1637 782.553 50.9774 773.456C51.7354 764.736 51.514 755.798 48.8174 747.401C46.5099 739.74 41.0248 733.726 36.9252 727.029C25.9249 709.725 19.9794 689.156 20.8364 668.619C20.9181 658.438 24.2714 648.336 22.2463 638.163C21.11 627.926 14.3076 619.814 9.71242 610.983C5.89369 603.519 2.26071 595.699 1.42876 587.244C-0.473289 570.046 6.49161 553.087 4.00484 535.882C2.87716 526.175 -1.61963 516.528 -9.51861 510.544C-14.5119 506.678 -20.8204 505.363 -26.4075 502.647C-33.3143 499.638 -38.2295 493.46 -45.2854 490.727C-49.3691 488.685 -54.4767 487.602 -57.0166 483.445C-60.9932 477.188 -63.1741 469.952 -64.3399 462.688C-65.8862 454.599 -62.1012 446.87 -60.3875 439.128C-55.3974 416.071 -40.952 395.323 -41.234 371.125C-45.6157 362.171 -56.7541 363.114 -65.0047 361.024Z" fill="white"/>
<path d="M-126.945 542.358C-128.382 544.019 -126.695 547.767 -124.51 547.75C-123.234 546.016 -124.718 542.353 -126.945 542.358Z" fill="white"/>
<path d="M-120.506 569.56C-121.88 571.208 -120.493 575.011 -118.238 575.013C-116.879 573.361 -118.283 569.569 -120.506 569.56Z" fill="white"/>
<path d="M46.974 802.706C45.4489 804.133 45.3775 808.328 47.6435 808.905C49.0639 807.419 49.1904 803.3 46.974 802.706Z" fill="white"/>
<path d="M48.4064 813.97C46.8817 815.788 47.8419 820.229 50.4969 820.309C51.7999 818.476 50.5499 814.499 48.4064 813.97Z" fill="white"/>
<path d="M53.2254 823.929C52.0606 825.919 55.0437 828.871 57.1438 828.44C58.1823 826.416 55.241 823.702 53.2254 823.929Z" fill="white"/>
<path d="M61.0133 831.057C69.4621 839.927 82.9086 840.189 92.9505 846.537C105.433 853.764 112.692 867.356 125.632 873.939C137.759 880.529 152.845 884.436 166.224 879.398C177.966 873.62 183.753 860.213 195.886 854.887C202.486 851.298 210.002 854.501 216.328 857.098C225.38 861.134 234.652 865.304 244.734 865.613C251.614 865.801 259.093 867.293 265.507 864.061C255.836 863.682 246.008 865.066 236.573 862.177C224.301 859.942 213.564 852.039 200.996 851.47C190.287 853.281 182.838 862.06 175.898 869.665C169.948 876.272 161.224 880.662 152.191 879.806C139.577 879.526 127.519 874.249 117.763 866.443C112.121 861.575 107.662 855.49 101.873 850.778C96.1084 845.637 89.196 841.919 81.7987 839.787C74.5238 837.702 68.1708 833.411 61.0133 831.057Z" fill="white"/>
<path d="M26.5129 1005.66C27.2876 1002.99 23.4504 1001.99 22.7955 1004.66L26.5129 1005.66Z" fill="white"/>
<path d="M29.6235 1003.81C29.235 1005.94 34.42 1007.24 35.1414 1005.22C33.9601 1003.62 31.4237 1002.99 29.6235 1003.81Z" fill="white"/>
<path d="M36.9396 1005.13C38.3857 1006.69 39.9029 1008.21 41.467 1009.67L47.415 1011.26C44.1804 1008.8 40.7406 1006.6 36.9396 1005.13Z" fill="white"/>
<path d="M71.7998 972.663C68.9081 973.86 65.0626 974.801 64.1231 978.251C61.6651 983.777 64.516 989.522 66.3152 994.759C69.1256 1002.06 70.4413 1009.83 71.1367 1017.62L73.4794 1018.24C71.8776 1009.69 70.8851 1000.93 67.521 992.84C65.752 988.107 63.2114 982.551 66.2241 977.76C74.5735 972.187 85.6561 971.621 92.9799 964.208C101.664 957.16 101.932 944.154 110.718 937.344C120.04 931.957 131.344 935.332 141.45 932.968C150.997 931.117 159.235 925.454 167.135 920.047C178.526 911.873 186.245 899.284 198.622 892.428C206.061 888.176 214.816 889.393 222.926 887.97C214.529 885.584 205.509 887.095 197.768 890.845C185.494 897.262 178.05 909.669 167.054 917.768C157.526 924.65 146.966 931.572 134.827 931.931C125.882 932.709 115.599 930.857 108.083 936.909C100.999 943.874 100.037 954.873 92.8309 961.79C87.2652 967.748 79.2832 970.154 71.7998 972.663Z" fill="white"/>
<path d="M90.674 997.223C84.2495 1003.13 83.7592 1012.48 81.5316 1020.4L82.9485 1020.78C85.3119 1013.36 85.7947 1004.66 91.6352 998.91C96.8428 993.504 104.458 991.963 111.313 989.721C120.613 986.886 129.109 982 138.311 978.912C145.434 976.457 152.721 974.121 158.932 969.736C171.983 960.758 180.952 947.375 191.919 936.183C201.621 926.293 215.475 921.442 229.074 920.406C242.904 919.688 257.781 924.261 270.688 917.336C266.053 917.689 261.49 918.558 256.883 919.084C247.274 920.212 237.67 917.729 228.054 918.658C214.158 919.961 200.047 924.983 190.226 935.263C179.406 946.524 170.314 959.693 157.333 968.69C150.698 973.308 142.77 975.232 135.314 978.034C126.849 981.063 119.01 985.629 110.343 988.122C103.438 990.215 96.0085 992.016 90.674 997.223Z" fill="white"/>
<path d="M109.329 1015.19C103.851 1016.84 99.4157 1020.54 94.9987 1024.01L97.2993 1024.63C102.534 1020.13 108.678 1016.78 115.457 1015.33C128.731 1012.25 141.304 1006.91 153.902 1001.81C165.558 996.913 177.424 991.74 186.92 983.179C196.266 974.894 203.935 964.007 216.005 959.416C225.108 955.354 235.351 955.059 245.068 956.67C254.095 957.884 263.343 961.19 272.446 958.694C282.466 955.585 289.197 946.403 299.189 943.226C308.072 940.49 318.358 941.38 326.047 946.857C333.627 952.123 340.431 959.333 349.833 961.221C360.21 963.174 370.467 959.632 380.155 956.299C388.037 953.595 396.101 1055.5 404.212 1053.62L404.859 1051.21C394.31 1054.33 383.589 952.855 373.247 956.66C364.834 959.778 355.416 961.091 346.739 958.179C337.429 955.158 331.205 947.02 322.645 942.664C315.786 939.081 307.606 939.252 300.242 940.981C288.635 943.784 281.194 955.003 269.435 957.42C259.17 958.974 249.288 954.67 239.145 954.029C227.895 952.866 216.416 955.975 207.075 962.275C196.781 969.103 189.755 979.725 179.54 986.649C165.778 995.979 149.893 1001.34 134.607 1007.55C126.453 1010.93 117.734 1012.55 109.329 1015.19Z" fill="white"/>
<path d="M181.682 1017.03C167.287 1023.45 151.673 1027.19 138.177 1035.58L142.681 1036.79C149.35 1034.51 155.555 1031.1 162.177 1028.72C170.327 1025.74 178.729 1023.29 186.358 1019.05C199.775 1011.97 210.434 1000.69 223.902 993.69C229.682 990.634 236.298 989.232 242.828 989.718C250.703 990.127 258.481 993.25 266.413 991.703C275.493 989.968 283.703 984.974 293.026 984.297C303.882 983.564 315.226 981.126 325.703 985.288C333.669 987.934 340.816 993.581 349.526 993.567C364.647 994.143 378.995 1092.24 394.016 1091.67L395.16 1087.4C380.975 1088.1 367.424 989.334 353.205 989.542C343.147 989.766 334.233 984.594 325.008 981.37C314.459 977.535 303.144 979.921 292.276 980.53C282.911 980.97 274.763 986.13 265.723 987.937C254.352 989.299 243.081 983.555 231.749 986.568C212.348 991.753 199.426 1008.67 181.682 1017.03Z" fill="white"/>
<path d="M224.683 887.583C223.865 889.516 227.326 890.458 228.584 889.411C229.392 887.46 225.907 886.496 224.683 887.583Z" fill="white"/>
<path d="M276.372 885.406C261.611 890.721 245.71 889.35 230.357 889.359C237.969 891.308 245.883 892.015 253.725 891.256C263.687 890.269 274.137 889.593 282.984 884.409C291.817 879.162 301.119 874.747 310.097 869.749C314.616 867.077 320.226 865.781 325.273 867.765C332.172 870.577 337.722 875.902 342.571 881.43C347.824 887.412 350.778 895.577 357.707 899.962C365.118 903.783 373.679 901.909 381.561 901.056C394.182 899.126 407.504 1003.46 419.207 997.658L419.584 996.254C410.216 999.567 400.435 1001.45 390.524 1002.13C380.683 1002.83 370.593 901.925 360.796 899.375C352.412 895.654 349.538 886.065 343.522 879.788C337.53 873.533 330.871 866.512 321.892 865.174C313.35 864.059 306.454 870.157 299.226 873.622C291.496 877.33 284.254 882.026 276.372 885.406Z" fill="white"/>
<path d="M215 1039.99C208.765 1043.9 202.365 1047.53 195.918 1051.05L198.597 1051.77C207.569 1047.07 216.12 1041.64 224.421 1035.86C231.37 1031.19 239.037 1026.82 247.64 1026.58C255.411 1026.26 263.264 1026.01 270.751 1023.71C284.395 1020.04 298.567 1017.65 312.721 1018.36C323.171 1018.75 331.923 1025.7 342.275 1026.46C356.305 1027.63 370.269 1025.23 384.227 1024.2L384.863 1021.83C372.054 1023.68 359.095 1025.19 346.129 1024.82C333.666 1024.76 322.971 1016.64 310.521 1016.36C295.356 1016.06 280.29 1019.03 265.705 1022.96C256.295 1025.42 246.222 1023.4 237.018 1026.83C228.903 1029.79 222.229 1035.45 215 1039.99Z" fill="white"/>
<path d="M268.367 863.097C273.1 861.927 267.412 867.837 268.367 863.097V863.097Z" fill="white"/>
<path d="M282.701 860.437C278.819 860.675 274.948 861.655 271.776 864.01C275.71 864.086 279.799 863.301 282.701 860.437Z" fill="white"/>
<path d="M286.251 857.626C284.057 860.71 289.916 860.052 290.186 857.642C290.27 855.422 287.007 856.489 286.251 857.626Z" fill="white"/>
<path d="M306.788 898.989C293.173 899.915 281.516 908.123 271.252 916.464C276.605 914.557 281.372 911.41 286.031 908.22C294.091 902.659 304.134 899.858 313.914 900.898C322.852 902.104 330.636 907.847 335.854 915.024C339.994 920.226 343.405 926.573 349.542 929.707C358.081 933.078 367.382 930.349 375.841 928.071C387.697 924.506 399.928 1026.52 412.074 1024.28L412.718 1021.88C400.491 1024.86 387.952 922.542 375.87 926.167C367.953 928.274 359.469 930.982 351.327 928.545C344.381 925.344 340.862 918.051 336.177 912.417C329.436 903.402 318.077 897.875 306.788 898.989Z" fill="white"/>
<path d="M302.478 847.512C298.199 849.285 294.589 852.321 291.949 856.113C296.355 854.539 299.793 851.247 302.478 847.512Z" fill="white"/>
<path d="M314.916 830.665C310.569 836.001 305.972 841.15 302.266 846.959C310.68 841.479 314.792 831.745 322.422 825.378C324.61 823.722 327.055 820.826 330.101 822.138C334.34 823.545 336.553 827.855 338.598 831.503C343.66 841.678 346.451 852.975 352.974 862.412C357.396 869.195 363.087 876.348 371.608 877.713C382.639 879.525 394.712 982.742 404.622 977.181C414.938 970.33 417.055 957.097 421.412 946.392C425.24 936.146 431.684 927.023 440.027 919.959L440.772 917.179C429.834 925.173 422.435 937.02 418.208 949.762C414.331 959.407 412.112 971.559 401.879 976.642C392.022 981.164 380.402 878.053 369.96 875.165C361.403 873.038 356.641 864.944 352.402 857.925C346.934 849.041 344.623 838.7 339.737 829.551C337.121 824.727 332.833 819.575 326.757 820.084C321.929 822.447 318.373 826.686 314.916 830.665Z" fill="white"/>
<path d="M344.564 1081.78C334.763 1083.62 324.761 1082.01 314.877 1082.93L321.919 1084.81C338.275 1085.72 354.291 1082 369.92 1077.6L370.274 1076.28C361.594 1077.64 353.18 1080.2 344.564 1081.78Z" fill="white"/>
</svg>
