<svg width="8" height="12" viewBox="0 0 8 12" fill="none" xmlns="http://www.w3.org/2000/svg">
<path d="M0.271845 6.6375L5.5534 11.7375C5.73463 11.9125 5.95469 12 6.21359 12C6.47249 12 6.69256 11.9125 6.87379 11.7375L7.72816 10.875C7.90939 10.7 8 10.4875 8 10.2375C8 9.9875 7.90939 9.775 7.72816 9.6L4 6L7.72816 2.4C7.90939 2.225 8 2.0125 8 1.7625C8 1.5125 7.90939 1.3 7.72816 1.125L6.87379 0.2625C6.69256 0.0875005 6.47249 -6.67695e-08 6.21359 -7.80864e-08C5.95469 -8.94032e-08 5.73463 0.0875005 5.5534 0.2625L0.271845 5.3625C0.0906151 5.5375 2.73196e-07 5.75 2.62268e-07 6C2.5134e-07 6.25 0.090615 6.4625 0.271845 6.6375Z" fill="white"/>
</svg>
