<svg width="73" height="8" viewBox="0 0 73 8" fill="none" xmlns="http://www.w3.org/2000/svg">
<path d="M4.5 0L5.56227 3.05574H9L6.21882 4.94426L7.28118 8L4.5 6.11148L1.71882 8L2.78118 4.94426L0 3.05574H3.43773L4.5 0Z" fill="#D9C287"/>
<path d="M20.5 0L21.5623 3.05574H25L22.2188 4.94426L23.2812 8L20.5 6.11148L17.7188 8L18.7812 4.94426L16 3.05574H19.4377L20.5 0Z" fill="#D9C287"/>
<path d="M36.5 0L37.5623 3.05574H41L38.2188 4.94426L39.2812 8L36.5 6.11148L33.7188 8L34.7812 4.94426L32 3.05574H35.4377L36.5 0Z" fill="#D9C287"/>
<path d="M52.5 0L53.5623 3.05574H57L54.2188 4.94426L55.2812 8L52.5 6.11148L49.7188 8L50.7812 4.94426L48 3.05574H51.4377L52.5 0Z" fill="#D9C287"/>
<path d="M68.5 0L69.5623 3.05574H73L70.2188 4.94426L71.2812 8L68.5 6.11148L65.7188 8L66.7812 4.94426L64 3.05574H67.4377L68.5 0Z" fill="#D9C287"/>
</svg>
