<svg width="48" height="48" viewBox="0 0 48 48" fill="none" xmlns="http://www.w3.org/2000/svg">
<circle cx="24" cy="24" r="23.5" stroke="#D9C287"/>
<path d="M31.1367 20.8125C31.1602 20.9038 31.1719 21.0523 31.1719 21.2578C31.1719 22.4681 30.9375 23.6785 30.4688 24.8888C30 26.0763 29.332 27.1725 28.4648 28.1773C27.6211 29.1593 26.5195 29.9585 25.1602 30.5751C23.8008 31.1917 22.3008 31.5 20.6602 31.5C18.5977 31.5 16.7109 30.9633 15 29.89C15.2578 29.9129 15.5508 29.9243 15.8789 29.9243C17.5898 29.9243 19.125 29.4105 20.4844 28.3828C19.6641 28.3828 18.9375 28.1544 18.3047 27.6977C17.6953 27.2181 17.2734 26.6244 17.0391 25.9165C17.2734 25.9393 17.4961 25.9507 17.707 25.9507C18.0352 25.9507 18.3633 25.9165 18.6914 25.848C18.1289 25.7338 17.625 25.5054 17.1797 25.1629C16.7344 24.8203 16.3828 24.4093 16.125 23.9297C15.8672 23.4273 15.7383 22.8906 15.7383 22.3197V22.2512C16.2539 22.5481 16.8047 22.7079 17.3906 22.7308C16.2891 22 15.7383 20.9952 15.7383 19.7163C15.7383 19.0769 15.9141 18.4718 16.2656 17.9008C17.1797 19.0198 18.293 19.9105 19.6055 20.5727C20.9414 21.235 22.3594 21.6004 23.8594 21.6689C23.8125 21.3948 23.7891 21.1208 23.7891 20.8468C23.7891 19.8648 24.1406 19.0198 24.8438 18.3119C25.5703 17.604 26.4375 17.25 27.4453 17.25C28.5234 17.25 29.4258 17.6268 30.1523 18.3804C30.9961 18.2206 31.7812 17.9351 32.5078 17.524C32.2266 18.369 31.6875 19.0312 30.8906 19.5108C31.5938 19.4195 32.2969 19.2254 33 18.9285C32.4844 19.6593 31.8633 20.2873 31.1367 20.8125Z" fill="#D9C287"/>
</svg>
