<svg width="313" height="856" viewBox="0 0 313 856" fill="none" xmlns="http://www.w3.org/2000/svg">
<path d="M285.634 1404.75C301.464 1420.92 317.64 1437.03 337 1449V1445.06C323.732 1437.47 312.263 1427.3 301.833 1416.26C288.38 1402.01 273.081 1389.54 260.505 1374.48C245.183 1355.67 239.876 1331.34 234.707 1308.24C230.807 1291.32 230.207 1273.84 231.061 1256.55C231.961 1241.9 237.176 1227.98 238.791 1213.43C240.96 1198.9 237.591 1184.38 234.476 1170.24C228.015 1143.59 223.123 1116.61 217.862 1089.71C213.478 1065.61 205.147 1042.42 201.986 1018.07C197.279 984.845 190.079 951.897 188.141 918.303C186.502 902.164 187.587 885.909 186.11 869.746C184.656 853.952 186.249 838.066 188.579 822.433C190.748 808.853 194.648 795.065 203.324 784.136C211.632 773.576 221.231 763.247 224.623 749.851C230.3 729.146 222.085 708.072 224.277 687.183C226.861 669.337 242.391 657.808 254.967 646.603C271.904 633.484 285.404 616.583 297.033 598.737C304.464 587.301 308.963 573.997 309.286 560.325C309.979 537.291 318.909 513.957 337 499.017V496.711C319.947 507.847 311.179 527.561 307.694 546.975C305.179 562.192 305.871 578.655 297.495 592.258C287.573 608.674 275.666 623.984 261.474 636.965C248.091 649.623 231.246 660.137 223.861 677.753C215.185 701.593 229.792 727.094 221.162 750.981C215.624 769.841 197.533 781.3 191.279 799.769C185.626 815.378 184.357 832.094 182.672 848.464C181.034 864.673 184.564 880.744 184.587 896.907C183.757 937.279 193.125 976.798 198.732 1016.55C201.478 1037.71 207.778 1058.14 212.693 1078.85C219.246 1111.33 224.738 1144.1 232.884 1176.26C235.976 1188.97 236.184 1202.18 235.284 1215.16C234.245 1229.15 228.407 1242.37 228.43 1256.48C228.292 1273.24 227.461 1290.25 231.361 1306.69C235.884 1326.32 239.784 1346.56 250.098 1364.17C258.752 1380.22 273.174 1391.82 285.634 1404.75Z" fill="white"/>
<path d="M287.319 1389.31C304.187 1402.96 319.347 1418.61 337 1431.29V1423.98C319.14 1408.3 300.749 1393.23 283.234 1377.16C273.566 1368.14 264.682 1357.95 259.559 1345.64C256.652 1340.36 255.036 1332.98 248.391 1331.27C251.944 1355.25 269.204 1374.46 287.319 1389.31Z" fill="white"/>
<path d="M299.526 1380.38C310.786 1392.35 324.632 1401.41 337 1412.16V1408.03C324.47 1398.85 313.532 1387.39 299.526 1380.38Z" fill="white"/>
<path d="M320.086 1382.62C324.839 1388.13 330.793 1392.35 337 1396.04V1393.43C332.039 1388.87 326.27 1385.29 320.086 1382.62Z" fill="white"/>
<path d="M298.464 1354.93C310.071 1366.13 324.262 1374.02 337 1383.77V1379.6C323.893 1371.14 310.74 1362.58 299.479 1351.72C287.942 1340.68 280.673 1325.95 275.781 1310.94C271.466 1297.86 272.204 1283.89 272.458 1270.33C272.851 1247.71 282.427 1226.32 281.919 1203.61C282.865 1174.65 270.751 1147.63 266.851 1119.31C260.759 1085.42 264.174 1050.9 263.113 1016.69C261.867 991.97 258.659 967.207 251.183 943.527C244.122 921.877 240.291 898.936 241.837 876.133C242.737 860.685 249.383 845.167 261.728 835.437C274.143 825.754 289.511 821.304 303.91 815.47C316.601 810.421 327.493 801.729 337 792.068V789.693C325.947 797.532 316.232 807.654 303.379 812.611C288.311 818.491 272.366 823.31 259.605 833.639C245.575 844.937 238.653 863.129 237.776 880.744C237.522 905.484 243.683 929.624 250.814 953.119C262.928 993.999 258.959 1037 260.505 1079.01C260.505 1104.92 264.82 1130.7 271.835 1155.6C275.481 1169.76 278.55 1184.19 279.219 1198.83C280.235 1222.4 270.474 1244.67 269.758 1268.07C269.112 1283.15 268.582 1298.67 273.427 1313.2C278.527 1328.69 286.419 1343.68 298.464 1354.93Z" fill="white"/>
<path d="M266.02 1320.37C274.812 1346.81 294.749 1369.2 319.393 1381.95C311.64 1372.8 300.841 1367.13 292.58 1358.53C279.704 1345.45 271.166 1328.64 266.136 1311.12C261.89 1296.36 263.136 1280.85 263.228 1265.7C263.32 1245.34 272.551 1226.34 272.666 1205.98C273.82 1186.11 268.235 1166.83 263.782 1147.69C258.105 1124.45 254.067 1100.68 253.929 1076.73C253.836 1062.87 251.69 1049.1 251.644 1035.25C251.552 1019.75 252.498 1004.14 250.098 988.742C246.914 962.918 237.868 938.317 233.692 912.677C229.515 888.03 228.292 860.754 241.399 838.435C253.329 819.759 275.62 812.68 294.841 804.08C311.732 797.302 324.885 784.251 337 771.109V768.757C323.524 779.594 312.24 793.682 295.857 800.391C274.789 809.983 249.913 817.753 237.73 839.127C223.677 865.365 227.461 896.791 232.953 924.851C238.653 949.545 246.106 973.962 248.252 999.325C250.629 1020.47 247.952 1041.77 249.96 1062.92C251.806 1080.46 251.252 1098.21 254.275 1115.65C257.898 1142.14 267.451 1167.52 269.851 1194.22C271.489 1211.45 266.574 1228.21 262.882 1244.83C258.336 1269.76 257.113 1296.2 266.02 1320.37Z" fill="white"/>
<path d="M276.058 1357.56C280.465 1367.29 288.98 1374.41 298.141 1379.53C292.118 1371 284.411 1363.78 276.058 1357.56Z" fill="white"/>
<path d="M317.801 1357.3C323.662 1363.02 330.4 1367.7 337 1372.52V1367.86C330.931 1363.74 324.516 1360.19 317.801 1357.3Z" fill="white"/>
<path d="M303.679 1335.98C312.702 1347.44 325.255 1355.11 337 1363.41V1356.36C327.862 1349.19 317.732 1343.05 310.209 1334.04C300.656 1322.72 293.664 1308.61 293.157 1293.6C292.718 1284.28 292.926 1274.94 293.318 1265.61C293.941 1247.81 300.61 1230.75 300.402 1212.85C301.464 1191 295.949 1169.62 290.826 1148.57C285.127 1127.43 281.573 1105.59 281.619 1083.64C281.642 1058.3 281.665 1032.94 281.919 1007.6C282.404 986.528 279.15 965.431 272.389 945.464C265.536 924.459 257.482 902.187 262.397 879.822C265.559 863.659 277.142 849.248 293.018 844.061C308.271 839.103 322.901 832.509 337 824.831V817.384C322.324 826.284 306.425 832.763 290.296 838.504C273.404 844.407 260.436 859.301 256.882 876.824C251.714 903.017 259.79 929.209 268.489 953.695C282.242 994.275 273.335 1037.3 274.535 1079.05C274.581 1099.74 277.442 1120.35 282.311 1140.43C287.48 1161.99 293.641 1183.55 294.587 1205.82C295.741 1230.84 285.034 1254.59 285.911 1279.63C284.48 1299.82 290.895 1320.27 303.679 1335.98Z" fill="white"/>
<path d="M263.159 1339.57C265.789 1345.96 270.035 1351.52 274.858 1356.43C265.651 1337.89 256.352 1318.98 253.721 1298.16C249.267 1274.58 253.79 1250.55 259.605 1227.63C263.436 1212.92 264.636 1197.41 261.428 1182.46C255.175 1151.98 246.914 1121.73 244.629 1090.58C243.268 1072.94 241.422 1055.33 240.337 1037.67C240.268 1010.48 237.799 983.162 231.107 956.762C224.623 930.339 219.708 903.363 219.316 876.086C219.316 855.266 224.185 833.016 239.16 817.615C259.813 796.84 291.772 791.906 310.994 769.288C319.647 759.12 327.862 748.583 337 738.784V734.518C322.209 749.321 311.294 767.927 294.195 780.309C276.496 792.16 255.382 798.685 239.437 813.211C225.684 825.777 218.785 844.245 217.262 862.483C214.447 897.691 222.039 932.552 230.276 966.561C235.145 985.952 235.976 1006.01 237.407 1025.86C237.499 1049.06 240.222 1072.09 242.16 1095.15C244.191 1119.01 249.36 1142.44 254.944 1165.68C258.29 1181.4 262.167 1197.61 259.398 1213.73C256.652 1230.49 251.044 1246.7 249.683 1263.69C247.029 1289.65 252.567 1315.89 263.159 1339.57Z" fill="white"/>
<path d="M284.065 1316.24C290.849 1332.36 300.91 1348.47 316.855 1356.84C311.202 1349.6 304.233 1343.56 298.626 1336.34C287.042 1320.78 280.235 1301.48 281.504 1281.98C279.935 1253.82 292.511 1227.08 290.665 1198.95C288.865 1165.22 274.466 1133.68 272.712 1099.92C272.112 1078.25 269.689 1056.53 271.743 1034.86C273.912 1011.5 271.466 987.935 266.759 965.039C263.02 946.479 254.852 929.025 252.521 910.164C250.121 892.618 249.129 873.55 258.082 857.549C266.551 841.432 284.527 834.1 300.979 828.866C314.34 824.831 326.455 817.476 337 808.415V806.063C324.862 813.972 312.863 822.641 298.718 826.561C280.627 832.002 261.197 841.409 253.582 859.901C242.529 885.009 248.575 913.3 256.213 938.455C266.736 968.659 270.889 1001.05 268.259 1032.92C266.482 1062.82 268.028 1092.89 272.666 1122.49C276.519 1147.03 285.796 1170.47 287.342 1195.4C290.295 1220.83 279.588 1245.13 279.104 1270.36C278.873 1285.71 277.719 1301.81 284.065 1316.24Z" fill="white"/>
<path d="M297.426 1293.48C298.741 1317.92 316.209 1338.56 337 1349.97V1347.69C325.785 1338.65 313.763 1329.7 307.025 1316.61C299.226 1303.33 299.618 1287.46 300.172 1272.59C300.541 1255.92 306.102 1239.67 304.602 1222.88C299.156 1245.92 296.272 1269.8 297.426 1293.48Z" fill="white"/>
<path d="M307.694 1299.92C310.994 1317.14 323.593 1330.26 337 1340.61V1336.39C321.216 1325.9 309.494 1308.28 309.31 1288.96C307.302 1259.73 317.294 1231.02 313.348 1201.76C311.317 1167.06 296.71 1134.51 295.257 1099.74C292.695 1075.94 295.764 1052.12 296.133 1028.31C299.087 1006.29 296.803 983.992 292.557 962.296C288.496 941.729 276.796 922.961 276.866 901.564C275.827 886.508 282.242 870.322 295.695 862.529C308.894 854.966 323.409 850.009 337 843.185V838.711C327.608 844.568 317.478 849.041 307.371 853.422C295.672 858.402 283.327 865.134 278.366 877.585C269.758 898.175 275.366 921.393 283.327 941.268C297.172 977.029 293.757 1015.99 292.326 1053.44C288.842 1075.34 291.934 1097.43 294.357 1119.29C297.449 1142.44 305.964 1164.5 308.733 1187.72C310.533 1202.68 312.609 1217.83 310.694 1232.91C307.856 1255.05 304.21 1277.62 307.694 1299.92Z" fill="white"/>
<path d="M242.022 1314.19C243.614 1320.78 245.068 1328.94 252.198 1331.83C251.667 1322.79 249.014 1314.12 246.821 1305.4C242.668 1289.26 242.183 1272.32 244.214 1255.83C246.314 1238.22 253.767 1221.52 254.067 1203.65C254.552 1186.2 249.152 1169.41 245.322 1152.61C235.03 1103.24 229.7 1053.02 224.231 1002.94C220.931 975.899 214.793 949.292 210.801 922.361C208.101 886.946 202.055 848.672 218.9 815.655C227.969 796.472 249.083 788.863 264.774 776.343C279.45 765.829 287.711 749.367 296.203 733.988C304.902 718.54 309.679 701.386 316.786 685.246C322.439 670.374 329.939 656.356 337 642.153V627.904C330.724 639.386 325.462 651.376 319.67 663.088C309.217 684.093 302.941 706.919 292.165 727.786C284.088 743.372 276.196 760.065 261.82 770.948C246.36 783.191 226.054 790.477 215.854 808.392C200.025 835.599 198.894 868.708 202.424 899.235C203.209 928.31 211.378 956.416 215.624 985.053C219.985 1021.71 224.115 1058.42 228.615 1095.08C232.284 1124.43 239.83 1153.09 245.437 1182.07C250.583 1205.59 243.037 1228.88 239.091 1251.86C236.022 1272.59 237.822 1293.76 242.022 1314.19Z" fill="white"/>
<path d="M316.601 1295.37C318.978 1308.88 328.116 1319.63 337 1329.5V1325.09C329.431 1316.26 321.678 1306.74 319.532 1294.98C315.701 1267.57 322.555 1240.13 320.847 1212.65C320.316 1198.6 317.594 1184.79 316.601 1170.8C321.355 1185.78 321.47 1201.76 323.016 1217.3C325.001 1240.27 321.309 1263.28 323.432 1286.22C324.332 1297.45 329.501 1307.8 337 1316.1V1306.74C333.585 1300.17 329.754 1293.53 329.177 1285.97C327.908 1271.58 327.285 1257.03 329.362 1242.69C331 1231.87 328.439 1220.67 331.623 1210.04C332.316 1217.3 332.177 1224.59 332.593 1231.85C336.908 1231 334.139 1225.05 334.946 1221.98C334.6 1211.38 332.916 1200.86 331.67 1190.33C328.416 1161.51 317.224 1133.77 318.47 1104.42C317.201 1078.85 324.147 1053.74 323.085 1028.24C320.016 997.319 320.04 965.547 309.471 935.942C305.087 923.422 301.741 909.288 306.54 896.376C311.825 883.211 326.016 877.885 335.546 868.432C320.063 874.265 304.233 886.093 301.695 903.501C298.949 920.494 307.51 936.311 311.294 952.427C317.132 978.896 318.424 1006.08 319.855 1033.08C320.501 1054.66 315.032 1075.92 315.817 1097.52C314.963 1116.18 317.455 1134.67 320.409 1153.02C308.225 1116.68 311.086 1077.56 313.925 1039.95C314.478 1006.22 316.001 971.357 303.933 939.193C298.326 923.676 292.026 905.507 299.987 889.667C307.994 875.741 324.078 870.184 337 861.953V856.673C321.193 862.806 305.41 871.429 295.28 885.378C287.042 900.181 289.995 918.372 295.372 933.659C311.225 975.645 310.902 1021.74 305.318 1065.68C303.402 1087.82 304.348 1110.2 308.871 1131.99C310.925 1144.54 315.724 1156.69 315.678 1169.53C309.979 1144.26 302.064 1119.04 302.341 1092.87C302.433 1073.5 301.741 1054.04 304.048 1034.76C305.779 1009.58 305.687 984.015 299.918 959.321C296.41 940.507 285.242 923.445 286.026 903.801C285.034 892.042 289.442 879.983 298.764 872.536C310.209 863.59 323.962 858.333 337 852.177V847.957C319.832 859.094 296.341 863.659 286.511 883.465C278.412 901.795 284.273 922.638 291.288 940.346C300.702 967.022 303.587 995.774 301.972 1023.93C300.518 1042.3 299.318 1060.72 298.395 1079.12C299.041 1103.59 301.556 1128.14 308.04 1151.82C312.771 1168.54 315.655 1185.72 317.063 1203.03C321.839 1233.77 312.032 1264.62 316.601 1295.37ZM323.685 1172.25C321.401 1170.89 321.563 1165.17 324.909 1165.75C327.124 1167.15 327.008 1172.85 323.685 1172.25ZM321.17 1160.91C319.024 1158.21 319.578 1156.69 322.832 1156.34C324.955 1159.04 324.401 1160.56 321.17 1160.91Z" fill="white"/>
<path d="M332.523 1249.91C331.323 1263.58 331.462 1277.78 337 1290.58V1279C334.992 1269.18 334.785 1259.2 334.462 1249.24L332.523 1249.91Z" fill="white"/>
<path d="M333.1 1243.98C336.492 1243.61 336.469 1235.15 333.1 1234.76C331.185 1237.29 331.185 1241.44 333.1 1243.98Z" fill="white"/>
<path d="M304.533 1215.07L306.379 1214.65C305.987 1193.9 303.518 1173.06 297.633 1153.09C290.803 1129.04 287.803 1104.09 286.396 1079.19C285.519 1062.94 288.749 1046.87 288.68 1030.64C288.357 1009.52 290.226 988.073 285.242 967.299C281.781 946.848 271.512 928.241 268.674 907.628C266.689 894.14 268.628 879.706 275.781 867.924C281.458 858.725 291.195 853.191 301.002 849.364C313.163 844.591 325.208 839.472 337 833.846V829.558C321.655 839.38 303.772 843.876 287.85 852.453C272.643 860.408 265.628 878.138 265.166 894.509C264.29 912.931 271.027 930.362 277.004 947.401C287.757 979.404 287.642 1013.76 284.504 1047.01C281.688 1086.5 285.911 1126.53 297.426 1164.46C302.664 1180.87 301.095 1198.35 304.533 1215.07Z" fill="white"/>
<path d="M327.262 1092.57C321.101 1124.2 328.508 1156.34 337 1186.82V1172.71C331.093 1152.01 326.385 1130.56 327.931 1108.89C328.577 1094.92 332.916 1081.54 337 1068.26V1048.69C333.931 1063.35 331.07 1078.06 327.262 1092.57Z" fill="white"/>
<path d="M337 1102.94C330.354 1118.67 331.208 1136.42 337 1152.24V1134.14C332.2 1129.83 332.316 1122.84 337 1118.5V1102.94Z" fill="white"/>
<path d="M321.147 954.087C326.524 985.099 328.601 1016.76 337 1047.19V1032.2C329.662 1005.25 328.993 977.098 323.247 949.845C319.878 935.043 313.394 919.986 317.109 904.585C319.509 894.001 329.016 887.638 337 881.32V877.378C326.985 884.641 316.094 892.918 313.532 905.83C310.325 922.315 318.447 938.109 321.147 954.087Z" fill="white"/>
<path d="M327.655 943.066C331.877 959.552 331.185 976.96 337 993.076V979.219C334.162 965.201 332.754 950.906 329.316 937.002C327.47 929.048 325.139 920.77 326.939 912.562C328.324 905.115 333.008 898.982 337 892.733V890.289C332.016 895.431 327.008 900.942 325.024 908.02C320.732 919.571 325.255 931.653 327.655 943.066Z" fill="white"/>
<path d="M337 556.174C332.593 556.082 332.639 562.377 337 562.284V556.174Z" fill="white"/>
<path d="M332.892 552.162C336.308 551.886 336.169 543.401 332.777 543.124C330.816 545.591 330.885 549.742 332.892 552.162Z" fill="white"/>
<path d="M331.9 540.404C333.7 537.545 335.408 534.593 337 531.596V521.82C334.554 527.792 332.593 533.971 331.9 540.404Z" fill="white"/>
<path d="M267.797 500.285C270.82 504.228 273.843 509.738 279.519 509.761C289.003 511.26 296.641 504.527 303.933 499.616C313.971 492.307 325.347 487.096 337 482.831V478.98C324.539 484.952 311.525 490.071 300.495 498.556C293.964 503.213 286.488 509.392 277.904 506.741C265.928 496.227 260.505 479.465 246.129 471.279C231.753 460.858 211.701 465.792 197.648 455.117C185.556 443.035 186.087 424.313 178.311 409.787C171.55 395.907 159.481 385.601 147.944 375.709C130.729 361.599 108.254 354.935 92.655 338.772C83.0787 329.112 81.3481 315.185 75.8331 303.334C75.6254 317.191 81.6481 330.403 90.5783 340.732C105.462 356.918 127.545 363.236 144.482 376.77C158.951 388.552 173.903 401.902 179.441 420.37C184.31 433.766 185.695 450.298 198.063 459.336C211.655 467.337 228.915 464.293 242.483 472.501C253.906 478.588 260.874 489.84 267.797 500.285Z" fill="white"/>
<path d="M297.703 461.25C309.402 468.674 323.939 465.584 337 465.746V463.417C324.655 462.841 311.109 465.677 299.895 459.082C289.465 453.318 283.973 442.274 277.719 432.682C269.551 419.586 258.567 408.565 250.052 395.723C243.36 385.808 236.784 375.594 227.507 367.87C208.378 351.546 184.172 343.292 162.504 331.072C143.352 320.258 130.222 301.005 123.045 280.577C116.261 259.665 117.161 234.971 101.239 218.024C103.685 224.987 106.893 231.628 109.592 238.476C115.269 252.748 115.407 268.495 120.784 282.86C128.491 303.634 141.99 323.209 161.789 334.046C183.503 346.012 207.432 354.543 226.561 370.752C236.368 379.03 242.576 390.396 249.937 400.68C258.059 412.416 268.282 422.561 275.666 434.827C281.711 444.557 287.526 455.209 297.703 461.25Z" fill="white"/>
<path d="M317.594 425.258C322.37 432.982 329.87 438.262 337 443.611V439.83C327.954 433.651 320.293 425.604 315.286 415.805C305.11 396.714 291.749 379.629 278.758 362.406C266.459 346.542 253.652 330.472 236.622 319.428C220.077 308.499 200.232 301.213 188.233 284.589C178.265 272.3 173.603 256.714 172.08 241.15C170.234 226.809 171.504 211.269 163.935 198.334C155.051 184.246 138.206 177.698 129.23 163.68C121.384 151.183 118.523 135.043 123.761 121.002C128.722 107.214 136.983 93.8177 136.014 78.6234C134.745 61.9072 125.099 47.6351 116.007 34.147C108.623 23.172 102.093 11.6666 95.8856 0H91.9166C101.031 14.8947 109.315 30.2965 119.399 44.5917C127.637 56.2123 133.521 70.1155 132.622 84.6182C131.814 100.135 121.891 113.024 118.73 127.942C116.053 139.931 119.676 152.405 125.353 162.988C134.422 179.635 154.682 186.437 163.219 203.476C169.819 218.578 167.281 235.501 170.465 251.318C173.303 269.049 182.787 285.373 196.286 297.109C210.985 310.09 230.161 316.5 244.975 329.319C264.936 346.589 279.681 368.746 295.487 389.636C304.025 400.749 310.094 413.453 317.594 425.258Z" fill="white"/>
<path d="M290.688 313.548C306.448 332.985 318.586 355.396 337 372.643V365.242C330.77 355.95 322.993 347.834 316.624 338.657C308.71 327.382 301.487 315.508 291.865 305.548C275.481 287.886 253.813 276.173 237.545 258.397C230.484 250.788 225.615 241.219 223.677 231.005C221.069 218.762 222.662 205.551 217.031 194.022C210.639 180.811 199.609 170.274 194.74 156.255C189.156 139.908 180.757 123.515 182.834 105.738C183.618 92.4343 189.341 79.1537 185.741 65.8038C180.411 42.3782 165.458 22.8031 158.42 0H151.405C158.304 21.4658 171.896 40.0956 178.057 61.8151C182.534 77.1477 178.265 92.9417 177.111 108.413C175.565 126.166 183.872 142.537 189.272 158.953C193.794 173.133 205.055 183.509 211.539 196.628C218.3 213.505 214.124 233.15 223.4 249.289C239.322 276.911 270.566 289.777 290.688 313.548Z" fill="white"/>
<path d="M74.5178 300.798C77.8175 301.259 77.8407 295.564 75.7178 294.065C72.3949 293.627 72.3487 299.369 74.5178 300.798Z" fill="white"/>
<path d="M49.9425 222.428C64.1569 242.879 68.5874 267.827 74.9101 291.368C74.7716 278.894 72.6026 266.467 68.2183 254.754C62.611 239.882 57.2806 224.134 45.6967 212.698C34.0206 201.308 23.429 188.858 12.0759 177.145C6.12245 171.312 1.83042 163.242 2.79958 154.688C4.2764 142.952 10.1606 132.253 16.6448 122.547C23.6597 112.033 34.9666 104.147 38.8433 91.7197C41.6584 78.7848 35.2667 66.4263 30.7208 54.6904C22.5752 36.1298 17.6139 15.5632 3.90717 0H1.59965C10.5298 13.0039 17.4294 27.23 22.5521 42.1477C27.6749 56.9501 36.5588 71.1531 36.6742 87.2235C34.4128 101.611 20.8907 109.958 13.7373 121.762C6.60704 133.521 -1.42322 146.618 0.215135 160.936C2.01501 174.493 14.1988 182.563 22.4829 192.224C31.3438 202.553 41.52 211.73 49.9425 222.428Z" fill="white"/>
<path d="M312.194 253.024C320.755 260.979 328.947 269.303 337 277.741V273.338C326.108 261.509 314.271 250.627 301.995 240.274C291.98 231.536 282.127 221.575 278.227 208.479C274.535 196.697 270.935 184.754 264.336 174.217C253.098 154.803 243.614 134.052 238.884 112.056C235.191 95.8698 242.253 79.5918 239.16 63.406C235.191 41.4099 225.777 20.9816 218.462 0H214.562C222.662 18.8834 230.299 38.1357 235.053 58.172C240.083 77.3091 232.03 97.0457 236.714 116.252C242.483 139.631 253.236 161.512 265.259 182.263C272.897 195.682 273.935 211.96 282.981 224.665C290.849 235.893 302.272 243.802 312.194 253.024Z" fill="white"/>
<path d="M58.2728 170.205C65.2877 190.702 82.6635 205.205 99.67 217.517C94.5473 210.093 87.763 204.075 80.9558 198.242C69.1181 188.166 60.6957 173.917 58.2728 158.492C56.4498 144.289 62.0571 129.994 70.9181 119.042C77.1946 110.557 85.5248 102.718 87.8092 92.0193C89.4707 77.5397 81.4635 64.3975 74.4947 52.3618C64.1569 35.6458 56.0806 17.7075 47.6581 0H43.7123C53.3116 17.5231 61.0417 36.0607 71.564 53.0996C78.0482 64.3744 85.6863 76.2716 85.294 89.7598C83.2403 101.726 73.5025 110.119 66.7876 119.618C55.7345 133.66 51.927 153.35 58.2728 170.205Z" fill="white"/>
</svg>
